<svg width="23" height="20" viewBox="0 0 23 20" fill="none" xmlns="http://www.w3.org/2000/svg">
<g id="Bridge_icon" clip-path="url(#clip0_24_1952)">
<path id="Vector" opacity="0.5" d="M4.56499 7.99001L0.554993 9.55001L4.51499 1.26001M4.56499 7.99001H4.57499L4.51499 1.26001M4.56499 7.99001L8.60499 9.49001L4.51499 1.26001M18.435 12.89L22.455 11.32L18.495 19.62M18.435 12.89L18.495 19.62M18.435 12.89L14.395 11.39L18.495 19.62M4.53499 8.38001V16.15C4.53499 18.07 6.08499 19.62 8.00499 19.62C9.92499 19.62 11.475 18.07 11.475 16.15V4.75001M11.475 4.75001C11.475 2.83001 13.025 1.28001 14.945 1.28001C16.865 1.28001 18.415 2.83001 18.415 4.75001V12.54M11.475 4.75001V16.16" stroke="white" stroke-width="0.75" stroke-linecap="round" stroke-linejoin="round"/>
</g>
<defs>
<clipPath id="clip0_24_1952">
<rect width="22.65" height="19.12" fill="white" transform="translate(0.174988 0.880005)"/>
</clipPath>
</defs>
</svg>
