<svg width="20" height="25" viewBox="0 0 20 25" fill="none" xmlns="http://www.w3.org/2000/svg">
<path d="M10 1.5C8.067 1.5 6.5 3.067 6.5 5L6.5 10L5.5 10L5.5 5C5.5 2.51472 7.51472 0.5 10 0.5C12.4853 0.5 14.5 2.51472 14.5 5L14.5 10L13.5 10L13.5 5C13.5 3.067 11.933 1.5 10 1.5Z" fill="white"/>
<path d="M17 24V25H3V24H17ZM19 22V13C19 11.8954 18.1046 11 17 11H3C1.89543 11 1 11.8954 1 13V22C1 23.1046 1.89543 24 3 24V25L2.8457 24.9961C1.26055 24.9158 0 23.6051 0 22V13C0 11.3431 1.34315 10 3 10H17C18.6569 10 20 11.3431 20 13V22C20 23.6569 18.6569 25 17 25V24C18.1046 24 19 23.1046 19 22Z" fill="white"/>
<circle cx="6" cy="17" r="1" fill="white"/>
<circle cx="10" cy="17" r="1" fill="white"/>
<circle cx="14" cy="17" r="1" fill="white"/>
</svg>
