<svg width="135" height="39" viewBox="0 0 135 39" fill="none" xmlns="http://www.w3.org/2000/svg">
<g clip-path="url(#clip0_163_2380)">
<path d="M48.7963 19.228C48.7963 21.3929 48.059 23.3505 46.8359 24.8249L49.143 26.8758L48.4057 27.7509L46.03 25.6544C44.6697 26.8529 42.8694 27.5664 40.8175 27.5664C36.1576 27.5664 32.8369 23.8813 32.8369 19.228C32.8369 14.5746 36.1595 10.8896 40.8175 10.8896C45.4756 10.8896 48.7982 14.5746 48.7982 19.228H48.7963ZM42.776 21.1627L45.9366 24.0183C46.9521 22.7513 47.5522 21.0695 47.5522 19.228C47.5522 15.2652 44.8298 12.0634 40.8175 12.0634C36.8053 12.0634 34.081 15.2652 34.081 19.228C34.081 23.1907 36.8034 26.3925 40.8175 26.3925C42.5245 26.3925 44.001 25.8161 45.1308 24.8497L42.0159 22.0626L42.7779 21.1646L42.776 21.1627Z" fill="#E6E6E6"/>
<path d="M62.3361 11.1654H63.5363V21.2312C63.5363 24.9866 61.4826 27.5663 57.7923 27.5663C54.1021 27.5663 52.0483 24.9866 52.0483 21.2312V11.1654H53.2486V21.1171C53.2486 24.2504 54.586 26.3925 57.7923 26.3925C60.9987 26.3925 62.3361 24.2504 62.3361 21.1171V11.1654Z" fill="#E6E6E6"/>
<path d="M72.279 11.1654H73.6164L80.052 27.2886H78.7603L76.9142 22.5896H68.9793L67.1332 27.2886H65.8416L72.2771 11.1654H72.279ZM69.4423 21.4843H76.4551L72.9496 12.5009L69.4442 21.4843H69.4423Z" fill="#E6E6E6"/>
<path d="M83.5594 11.1654L93.4775 25.2168V11.1654H94.6778V27.2886H93.4775L83.5594 13.1915V27.2886H82.3591V11.1654H83.5594Z" fill="#E6E6E6"/>
<path d="M101.944 12.2707H97.0763V11.1654H108.01V12.2707H103.142V27.2886H101.942V12.2707H101.944Z" fill="#E6E6E6"/>
<path d="M120.698 11.1654H121.898V21.2312C121.898 24.9866 119.845 27.5663 116.154 27.5663C112.464 27.5663 110.41 24.9866 110.41 21.2312V11.1654H111.611V21.1171C111.611 24.2504 112.948 26.3925 116.154 26.3925C119.361 26.3925 120.698 24.2504 120.698 21.1171V11.1654Z" fill="#E6E6E6"/>
<path d="M130.155 19.618C127.779 18.5811 125.819 17.3369 125.819 14.8961C125.819 13.0755 127.296 10.8877 130.317 10.8877C133.339 10.8877 134.699 13.2143 134.699 13.2143L133.777 13.9278C133.777 13.9278 132.624 12.0615 130.34 12.0615C128.309 12.0615 127.017 13.2828 127.017 14.8942C127.017 16.8746 128.841 17.7498 131.146 18.7638C133.615 19.8462 134.998 21.0904 134.998 23.2554C134.998 25.858 132.876 27.5625 130.178 27.5625C126.625 27.5625 125.173 24.2694 125.173 24.2694L126.257 23.6245C126.257 23.6245 127.318 26.3887 130.178 26.3887C132.184 26.3887 133.8 25.1902 133.8 23.2554C133.8 21.3206 132.047 20.4455 130.155 19.6161V19.618Z" fill="#E6E6E6"/>
<g filter="url(#filter0_d_163_2380)">
<path d="M11.4403 27.3266L0.735352 16.5037V11.2016L11.4403 0.580246L22.1701 11.2016V16.5037L11.4403 27.3266Z" fill="url(#paint0_linear_163_2380)"/>
</g>
<g filter="url(#filter1_d_163_2380)">
<path d="M11.4403 21.9998L0.735352 11.2016L11.4403 0.580246L22.1701 11.2016L11.4403 21.9998Z" fill="url(#paint1_linear_163_2380)"/>
</g>
<g filter="url(#filter2_d_163_2380)">
<path d="M11.4403 16.3343L3.55872 8.38786L11.4403 0.593567L19.3218 8.38786L11.4403 16.3343Z" fill="url(#paint2_linear_163_2380)"/>
</g>
<g filter="url(#filter3_d_163_2380)">
<path d="M11.4727 8.8901L7.28516 4.66859L11.4403 0.557419L15.6297 4.69903L11.4727 8.8901Z" fill="url(#paint3_linear_163_2380)"/>
</g>
<g filter="url(#filter4_d_163_2380)">
<path d="M11.4727 38.0868L0.735352 27.2886L11.4727 16.6673L22.1701 27.2886L11.4727 38.0868Z" fill="url(#paint4_linear_163_2380)"/>
</g>
<g filter="url(#filter5_d_163_2380)">
<path d="M11.4098 32.6687L19.4686 24.5548L11.5051 16.6673L3.44446 24.6499L11.4098 32.6687Z" fill="url(#paint5_linear_163_2380)"/>
</g>
<g filter="url(#filter6_d_163_2380)">
<path d="M11.4251 27.2962L16.7785 21.9066L11.488 16.6673L6.13452 21.9713L11.4251 27.2962Z" fill="url(#paint6_linear_163_2380)"/>
</g>
<g filter="url(#filter7_d_163_2380)">
<path d="M0.735352 27.2886L6.13451 21.9713L0.735352 16.5037V27.2886Z" fill="url(#paint7_linear_163_2380)"/>
</g>
<g filter="url(#filter8_d_163_2380)">
<path d="M22.17 27.2886L16.7423 21.9066L22.17 16.5037V27.2886Z" fill="url(#paint8_linear_163_2380)"/>
</g>
<g filter="url(#filter9_d_163_2380)">
<path d="M11.4404 21.9998L14.1266 19.2964L11.4727 16.6673L8.7865 19.3269L11.4404 21.9998Z" fill="url(#paint9_linear_163_2380)"/>
</g>
</g>
<defs>
<filter id="filter0_d_163_2380" x="-1.26465" y="-0.419754" width="25.4347" height="30.7464" filterUnits="userSpaceOnUse" color-interpolation-filters="sRGB">
<feFlood flood-opacity="0" result="BackgroundImageFix"/>
<feColorMatrix in="SourceAlpha" type="matrix" values="0 0 0 0 0 0 0 0 0 0 0 0 0 0 0 0 0 0 127 0" result="hardAlpha"/>
<feOffset dy="1"/>
<feGaussianBlur stdDeviation="1"/>
<feColorMatrix type="matrix" values="0 0 0 0 0 0 0 0 0 0 0 0 0 0 0 0 0 0 0.15 0"/>
<feBlend mode="normal" in2="BackgroundImageFix" result="effect1_dropShadow_163_2380"/>
<feBlend mode="normal" in="SourceGraphic" in2="effect1_dropShadow_163_2380" result="shape"/>
</filter>
<filter id="filter1_d_163_2380" x="-1.26465" y="-0.419754" width="25.4347" height="25.4196" filterUnits="userSpaceOnUse" color-interpolation-filters="sRGB">
<feFlood flood-opacity="0" result="BackgroundImageFix"/>
<feColorMatrix in="SourceAlpha" type="matrix" values="0 0 0 0 0 0 0 0 0 0 0 0 0 0 0 0 0 0 127 0" result="hardAlpha"/>
<feOffset dy="1"/>
<feGaussianBlur stdDeviation="1"/>
<feColorMatrix type="matrix" values="0 0 0 0 0 0 0 0 0 0 0 0 0 0 0 0 0 0 0.15 0"/>
<feBlend mode="normal" in2="BackgroundImageFix" result="effect1_dropShadow_163_2380"/>
<feBlend mode="normal" in="SourceGraphic" in2="effect1_dropShadow_163_2380" result="shape"/>
</filter>
<filter id="filter2_d_163_2380" x="1.55872" y="-0.406433" width="19.7631" height="19.7408" filterUnits="userSpaceOnUse" color-interpolation-filters="sRGB">
<feFlood flood-opacity="0" result="BackgroundImageFix"/>
<feColorMatrix in="SourceAlpha" type="matrix" values="0 0 0 0 0 0 0 0 0 0 0 0 0 0 0 0 0 0 127 0" result="hardAlpha"/>
<feOffset dy="1"/>
<feGaussianBlur stdDeviation="1"/>
<feColorMatrix type="matrix" values="0 0 0 0 0 0 0 0 0 0 0 0 0 0 0 0 0 0 0.15 0"/>
<feBlend mode="normal" in2="BackgroundImageFix" result="effect1_dropShadow_163_2380"/>
<feBlend mode="normal" in="SourceGraphic" in2="effect1_dropShadow_163_2380" result="shape"/>
</filter>
<filter id="filter3_d_163_2380" x="5.28516" y="-0.442581" width="12.3445" height="12.3327" filterUnits="userSpaceOnUse" color-interpolation-filters="sRGB">
<feFlood flood-opacity="0" result="BackgroundImageFix"/>
<feColorMatrix in="SourceAlpha" type="matrix" values="0 0 0 0 0 0 0 0 0 0 0 0 0 0 0 0 0 0 127 0" result="hardAlpha"/>
<feOffset dy="1"/>
<feGaussianBlur stdDeviation="1"/>
<feColorMatrix type="matrix" values="0 0 0 0 0 0 0 0 0 0 0 0 0 0 0 0 0 0 0.15 0"/>
<feBlend mode="normal" in2="BackgroundImageFix" result="effect1_dropShadow_163_2380"/>
<feBlend mode="normal" in="SourceGraphic" in2="effect1_dropShadow_163_2380" result="shape"/>
</filter>
<filter id="filter4_d_163_2380" x="-1.26465" y="15.6673" width="25.4347" height="25.4196" filterUnits="userSpaceOnUse" color-interpolation-filters="sRGB">
<feFlood flood-opacity="0" result="BackgroundImageFix"/>
<feColorMatrix in="SourceAlpha" type="matrix" values="0 0 0 0 0 0 0 0 0 0 0 0 0 0 0 0 0 0 127 0" result="hardAlpha"/>
<feOffset dy="1"/>
<feGaussianBlur stdDeviation="1"/>
<feColorMatrix type="matrix" values="0 0 0 0 0 0 0 0 0 0 0 0 0 0 0 0 0 0 0.15 0"/>
<feBlend mode="normal" in2="BackgroundImageFix" result="effect1_dropShadow_163_2380"/>
<feBlend mode="normal" in="SourceGraphic" in2="effect1_dropShadow_163_2380" result="shape"/>
</filter>
<filter id="filter5_d_163_2380" x="1.44446" y="15.6673" width="20.0242" height="20.0014" filterUnits="userSpaceOnUse" color-interpolation-filters="sRGB">
<feFlood flood-opacity="0" result="BackgroundImageFix"/>
<feColorMatrix in="SourceAlpha" type="matrix" values="0 0 0 0 0 0 0 0 0 0 0 0 0 0 0 0 0 0 127 0" result="hardAlpha"/>
<feOffset dy="1"/>
<feGaussianBlur stdDeviation="1"/>
<feColorMatrix type="matrix" values="0 0 0 0 0 0 0 0 0 0 0 0 0 0 0 0 0 0 0.15 0"/>
<feBlend mode="normal" in2="BackgroundImageFix" result="effect1_dropShadow_163_2380"/>
<feBlend mode="normal" in="SourceGraphic" in2="effect1_dropShadow_163_2380" result="shape"/>
</filter>
<filter id="filter6_d_163_2380" x="4.13452" y="15.6673" width="14.644" height="14.6289" filterUnits="userSpaceOnUse" color-interpolation-filters="sRGB">
<feFlood flood-opacity="0" result="BackgroundImageFix"/>
<feColorMatrix in="SourceAlpha" type="matrix" values="0 0 0 0 0 0 0 0 0 0 0 0 0 0 0 0 0 0 127 0" result="hardAlpha"/>
<feOffset dy="1"/>
<feGaussianBlur stdDeviation="1"/>
<feColorMatrix type="matrix" values="0 0 0 0 0 0 0 0 0 0 0 0 0 0 0 0 0 0 0.15 0"/>
<feBlend mode="normal" in2="BackgroundImageFix" result="effect1_dropShadow_163_2380"/>
<feBlend mode="normal" in="SourceGraphic" in2="effect1_dropShadow_163_2380" result="shape"/>
</filter>
<filter id="filter7_d_163_2380" x="-1.26465" y="15.5037" width="9.39917" height="14.7849" filterUnits="userSpaceOnUse" color-interpolation-filters="sRGB">
<feFlood flood-opacity="0" result="BackgroundImageFix"/>
<feColorMatrix in="SourceAlpha" type="matrix" values="0 0 0 0 0 0 0 0 0 0 0 0 0 0 0 0 0 0 127 0" result="hardAlpha"/>
<feOffset dy="1"/>
<feGaussianBlur stdDeviation="1"/>
<feColorMatrix type="matrix" values="0 0 0 0 0 0 0 0 0 0 0 0 0 0 0 0 0 0 0.15 0"/>
<feBlend mode="normal" in2="BackgroundImageFix" result="effect1_dropShadow_163_2380"/>
<feBlend mode="normal" in="SourceGraphic" in2="effect1_dropShadow_163_2380" result="shape"/>
</filter>
<filter id="filter8_d_163_2380" x="14.7423" y="15.5037" width="9.42773" height="14.7849" filterUnits="userSpaceOnUse" color-interpolation-filters="sRGB">
<feFlood flood-opacity="0" result="BackgroundImageFix"/>
<feColorMatrix in="SourceAlpha" type="matrix" values="0 0 0 0 0 0 0 0 0 0 0 0 0 0 0 0 0 0 127 0" result="hardAlpha"/>
<feOffset dy="1"/>
<feGaussianBlur stdDeviation="1"/>
<feColorMatrix type="matrix" values="0 0 0 0 0 0 0 0 0 0 0 0 0 0 0 0 0 0 0.15 0"/>
<feBlend mode="normal" in2="BackgroundImageFix" result="effect1_dropShadow_163_2380"/>
<feBlend mode="normal" in="SourceGraphic" in2="effect1_dropShadow_163_2380" result="shape"/>
</filter>
<filter id="filter9_d_163_2380" x="6.7865" y="15.6673" width="9.34009" height="9.33253" filterUnits="userSpaceOnUse" color-interpolation-filters="sRGB">
<feFlood flood-opacity="0" result="BackgroundImageFix"/>
<feColorMatrix in="SourceAlpha" type="matrix" values="0 0 0 0 0 0 0 0 0 0 0 0 0 0 0 0 0 0 127 0" result="hardAlpha"/>
<feOffset dy="1"/>
<feGaussianBlur stdDeviation="1"/>
<feColorMatrix type="matrix" values="0 0 0 0 0 0 0 0 0 0 0 0 0 0 0 0 0 0 0.15 0"/>
<feBlend mode="normal" in2="BackgroundImageFix" result="effect1_dropShadow_163_2380"/>
<feBlend mode="normal" in="SourceGraphic" in2="effect1_dropShadow_163_2380" result="shape"/>
</filter>
<linearGradient id="paint0_linear_163_2380" x1="8.1998" y1="-0.288342" x2="8.6481" y2="26.456" gradientUnits="userSpaceOnUse">
<stop offset="0.35" stop-color="#90B325"/>
<stop offset="0.64" stop-color="#44E66B"/>
<stop offset="1" stop-color="#1FEDA9"/>
</linearGradient>
<linearGradient id="paint1_linear_163_2380" x1="8.1998" y1="-0.288342" x2="8.55936" y2="21.1297" gradientUnits="userSpaceOnUse">
<stop stop-color="#FA35AF"/>
<stop offset="0.32" stop-color="#F97F56"/>
<stop offset="0.57" stop-color="#FAC534"/>
<stop offset="0.89" stop-color="#ADFA83"/>
</linearGradient>
<linearGradient id="paint2_linear_163_2380" x1="8.19023" y1="-0.275088" x2="8.45288" y2="15.4646" gradientUnits="userSpaceOnUse">
<stop offset="0.15" stop-color="#FA35AF"/>
<stop offset="0.55" stop-color="#FF4283"/>
<stop offset="0.89" stop-color="#FFA544"/>
</linearGradient>
<linearGradient id="paint3_linear_163_2380" x1="13.3134" y1="1.48983" x2="13.4497" y2="9.82321" gradientUnits="userSpaceOnUse">
<stop offset="0.15" stop-color="#FF1D25"/>
<stop offset="0.72" stop-color="#FE4088"/>
</linearGradient>
<linearGradient id="paint4_linear_163_2380" x1="8.23936" y1="15.8016" x2="8.59891" y2="37.2197" gradientUnits="userSpaceOnUse">
<stop offset="0.38" stop-color="#008ED5"/>
<stop offset="0.59" stop-color="#645ED8"/>
<stop offset="0.89" stop-color="#C05CD7"/>
</linearGradient>
<linearGradient id="paint5_linear_163_2380" x1="11.4575" y1="16.6673" x2="11.4575" y2="32.6687" gradientUnits="userSpaceOnUse">
<stop stop-color="#0AD4F6"/>
<stop offset="1" stop-color="#5665D8"/>
</linearGradient>
<linearGradient id="paint6_linear_163_2380" x1="11.4575" y1="16.6673" x2="11.4575" y2="27.2962" gradientUnits="userSpaceOnUse">
<stop offset="0.38" stop-color="#0BB9B0"/>
<stop offset="0.59" stop-color="#02BFBF"/>
<stop offset="0.89" stop-color="#0AD4F6"/>
</linearGradient>
<linearGradient id="paint7_linear_163_2380" x1="3.43493" y1="16.5037" x2="3.43493" y2="27.2886" gradientUnits="userSpaceOnUse">
<stop offset="0.38" stop-color="#0BB9B0"/>
<stop offset="0.59" stop-color="#02BFBF"/>
<stop offset="0.89" stop-color="#0AD4F6"/>
</linearGradient>
<linearGradient id="paint8_linear_163_2380" x1="19.4552" y1="16.5037" x2="19.4552" y2="27.2886" gradientUnits="userSpaceOnUse">
<stop offset="0.38" stop-color="#0BB9B0"/>
<stop offset="0.59" stop-color="#02BFBF"/>
<stop offset="0.89" stop-color="#0AD4F6"/>
</linearGradient>
<linearGradient id="paint9_linear_163_2380" x1="11.4575" y1="16.6673" x2="11.4575" y2="21.9998" gradientUnits="userSpaceOnUse">
<stop offset="0.38" stop-color="#8AF9A8"/>
<stop offset="0.59" stop-color="#5FE49E"/>
<stop offset="0.89" stop-color="#0CE6ED"/>
</linearGradient>
<clipPath id="clip0_163_2380">
<rect width="135" height="39" fill="white"/>
</clipPath>
</defs>
</svg>
