<svg width="16" height="15" viewBox="0 0 16 15" fill="none" xmlns="http://www.w3.org/2000/svg">
<g id="Vector">
<path id="Vector-21" fill-rule="evenodd" clip-rule="evenodd" d="M7.56701 4.8895C8.24958 3.90124 8.114 2.5637 7.24701 1.7325C6.36792 0.888061 5.02342 0.759284 4.00001 1.4215C3.57986 1.69308 3.25016 2.0837 3.05301 2.5435C2.8587 2.99881 2.80777 3.50252 2.90701 3.9875C3.00668 4.47472 3.25057 4.92071 3.60701 5.2675C3.97024 5.61861 4.42789 5.85629 4.92401 5.9515C5.42356 6.04902 5.94065 6.00006 6.41301 5.8105C6.87988 5.62366 7.28128 5.3033 7.56701 4.8895Z" stroke="white" stroke-width="1.5" stroke-linecap="round" stroke-linejoin="round"/>
<path id="Vector-22" fill-rule="evenodd" clip-rule="evenodd" d="M8.43299 12.8895C7.75043 11.9012 7.88601 10.5637 8.75299 9.7325C9.63209 8.88806 10.9766 8.75928 12 9.4215C12.4202 9.69308 12.7498 10.0837 12.947 10.5435C13.1413 10.9988 13.1922 11.5025 13.093 11.9875C12.9933 12.4747 12.7494 12.9207 12.393 13.2675C12.0298 13.6186 11.5721 13.8563 11.076 13.9515C10.5773 14.0481 10.0614 13.9988 9.58999 13.8095C9.12216 13.6234 8.71968 13.3034 8.43299 12.8895V12.8895Z" stroke="white" stroke-width="1.5" stroke-linecap="round" stroke-linejoin="round"/>
<path id="Vector-23" d="M8 2.75049C7.58579 2.75049 7.25 3.08627 7.25 3.50049C7.25 3.9147 7.58579 4.25049 8 4.25049V2.75049ZM15 4.25049C15.4142 4.25049 15.75 3.9147 15.75 3.50049C15.75 3.08627 15.4142 2.75049 15 2.75049V4.25049ZM2.857 4.25049C3.27121 4.25049 3.607 3.9147 3.607 3.50049C3.607 3.08627 3.27121 2.75049 2.857 2.75049V4.25049ZM1 2.75049C0.585786 2.75049 0.25 3.08627 0.25 3.50049C0.25 3.9147 0.585786 4.25049 1 4.25049V2.75049ZM8 12.2505C8.41421 12.2505 8.75 11.9147 8.75 11.5005C8.75 11.0863 8.41421 10.7505 8 10.7505V12.2505ZM1 10.7505C0.585786 10.7505 0.25 11.0863 0.25 11.5005C0.25 11.9147 0.585786 12.2505 1 12.2505V10.7505ZM13.143 10.7505C12.7288 10.7505 12.393 11.0863 12.393 11.5005C12.393 11.9147 12.7288 12.2505 13.143 12.2505V10.7505ZM15 12.2505C15.4142 12.2505 15.75 11.9147 15.75 11.5005C15.75 11.0863 15.4142 10.7505 15 10.7505V12.2505ZM8 4.25049H15V2.75049H8V4.25049ZM2.857 2.75049H1V4.25049H2.857V2.75049ZM8 10.7505H1V12.2505H8V10.7505ZM13.143 12.2505H15V10.7505H13.143V12.2505Z" fill="white"/>
</g>
</svg>
