<svg width="23" height="22" viewBox="0 0 23 22" fill="none" xmlns="http://www.w3.org/2000/svg">
<path d="M19.5883 11C19.585 11.3429 19.5604 11.6854 19.5146 12.0254L21.7721 13.7634C21.875 13.84 21.9454 13.9508 21.9696 14.0747C21.9939 14.1987 21.9704 14.3269 21.9037 14.4351L19.7461 18.0803C19.6836 18.1896 19.5823 18.2729 19.4611 18.3145C19.3399 18.356 19.2073 18.353 19.0883 18.3059L16.3993 17.2497C15.8408 17.6673 15.2287 18.012 14.5785 18.2751L14.1733 21.0591C14.1554 21.1822 14.0922 21.2949 13.9954 21.376C13.8985 21.4571 13.7747 21.5012 13.647 21.5H9.3319C9.20421 21.5012 9.08042 21.4571 8.9836 21.376C8.88678 21.2949 8.82354 21.1822 8.80567 21.0591L8.40047 18.2751C7.75113 18.0104 7.13924 17.6658 6.57969 17.2497L3.89062 18.3059C3.77161 18.353 3.63902 18.356 3.51786 18.3145C3.39669 18.2729 3.29531 18.1896 3.23282 18.0803L1.07525 14.4351C1.00853 14.3269 0.985058 14.1987 1.00933 14.0747C1.0336 13.9508 1.10391 13.84 1.20681 13.7634L3.48015 12.0254C3.43431 11.6854 3.40971 11.3429 3.40648 11C3.40989 10.6571 3.43449 10.3147 3.48015 9.97461L1.20681 8.23658C1.10391 8.16001 1.0336 8.04916 1.00933 7.92525C0.985058 7.80134 1.00853 7.67306 1.07525 7.56495L3.23282 3.91969C3.29531 3.81036 3.39669 3.72706 3.51786 3.68551C3.63902 3.64395 3.77161 3.64701 3.89062 3.69411L6.59021 4.75026C7.14871 4.33267 7.76082 3.98796 8.41099 3.72487L8.81619 0.940942C8.83407 0.817753 8.8973 0.705099 8.99412 0.623977C9.09094 0.542855 9.21474 0.4988 9.34243 0.500025H13.6681C13.7958 0.4988 13.9196 0.542855 14.0164 0.623977C14.1132 0.705099 14.1765 0.817753 14.1943 0.940942L14.5995 3.72487C15.2489 3.9896 15.8608 4.3342 16.4203 4.75026L19.1094 3.69411C19.2284 3.64701 19.361 3.64395 19.4821 3.68551C19.6033 3.72706 19.7047 3.81036 19.7672 3.91969L21.9248 7.56495C21.9915 7.67306 22.0149 7.80134 21.9907 7.92525C21.9664 8.04916 21.8961 8.16001 21.7932 8.23658L19.5146 9.97461C19.5604 10.3146 19.585 10.6571 19.5883 11Z" stroke="white" stroke-linecap="round" stroke-linejoin="round"/>
<circle cx="11.5" cy="11" r="4" stroke="white"/>
</svg>
