<svg xmlns="http://www.w3.org/2000/svg" viewBox="0 0 65 65" width="520" height="520" shape-rendering="crispEdges"><rect width="65" height="65" fill="#fff"/><path d="M4 4h7v1h-7zM12 4h2v1h-2zM15 4h1v1h-1zM17 4h1v1h-1zM19 4h1v1h-1zM21 4h1v1h-1zM23 4h1v1h-1zM25 4h1v1h-1zM35 4h1v1h-1zM37 4h1v1h-1zM39 4h3v1h-3zM45 4h4v1h-4zM50 4h2v1h-2zM54 4h7v1h-7zM4 5h1v1h-1zM10 5h1v1h-1zM12 5h1v1h-1zM14 5h1v1h-1zM17 5h3v1h-3zM23 5h1v1h-1zM25 5h2v1h-2zM28 5h1v1h-1zM30 5h2v1h-2zM34 5h3v1h-3zM40 5h2v1h-2zM44 5h3v1h-3zM49 5h1v1h-1zM51 5h1v1h-1zM54 5h1v1h-1zM60 5h1v1h-1zM4 6h1v1h-1zM6 6h3v1h-3zM10 6h1v1h-1zM12 6h2v1h-2zM17 6h1v1h-1zM21 6h1v1h-1zM23 6h1v1h-1zM25 6h2v1h-2zM31 6h1v1h-1zM34 6h2v1h-2zM37 6h1v1h-1zM39 6h1v1h-1zM45 6h3v1h-3zM49 6h3v1h-3zM54 6h1v1h-1zM56 6h3v1h-3zM60 6h1v1h-1zM4 7h1v1h-1zM6 7h3v1h-3zM10 7h1v1h-1zM12 7h1v1h-1zM15 7h3v1h-3zM20 7h3v1h-3zM26 7h1v1h-1zM29 7h1v1h-1zM31 7h2v1h-2zM36 7h1v1h-1zM38 7h1v1h-1zM41 7h2v1h-2zM45 7h2v1h-2zM48 7h2v1h-2zM51 7h1v1h-1zM54 7h1v1h-1zM56 7h3v1h-3zM60 7h1v1h-1zM4 8h1v1h-1zM6 8h3v1h-3zM10 8h1v1h-1zM13 8h2v1h-2zM17 8h2v1h-2zM25 8h1v1h-1zM28 8h9v1h-9zM42 8h1v1h-1zM46 8h1v1h-1zM48 8h1v1h-1zM51 8h1v1h-1zM54 8h1v1h-1zM56 8h3v1h-3zM60 8h1v1h-1zM4 9h1v1h-1zM10 9h1v1h-1zM12 9h2v1h-2zM15 9h1v1h-1zM18 9h2v1h-2zM22 9h2v1h-2zM26 9h5v1h-5zM34 9h1v1h-1zM36 9h1v1h-1zM38 9h1v1h-1zM40 9h1v1h-1zM42 9h4v1h-4zM48 9h3v1h-3zM54 9h1v1h-1zM60 9h1v1h-1zM4 10h7v1h-7zM12 10h1v1h-1zM14 10h1v1h-1zM16 10h1v1h-1zM18 10h1v1h-1zM20 10h1v1h-1zM22 10h1v1h-1zM24 10h1v1h-1zM26 10h1v1h-1zM28 10h1v1h-1zM30 10h1v1h-1zM32 10h1v1h-1zM34 10h1v1h-1zM36 10h1v1h-1zM38 10h1v1h-1zM40 10h1v1h-1zM42 10h1v1h-1zM44 10h1v1h-1zM46 10h1v1h-1zM48 10h1v1h-1zM50 10h1v1h-1zM52 10h1v1h-1zM54 10h7v1h-7zM16 11h1v1h-1zM18 11h3v1h-3zM22 11h3v1h-3zM26 11h2v1h-2zM30 11h1v1h-1zM34 11h2v1h-2zM37 11h3v1h-3zM43 11h1v1h-1zM48 11h1v1h-1zM50 11h1v1h-1zM4 12h2v1h-2zM8 12h3v1h-3zM15 12h1v1h-1zM17 12h1v1h-1zM20 12h3v1h-3zM24 12h1v1h-1zM26 12h1v1h-1zM30 12h8v1h-8zM39 12h1v1h-1zM43 12h1v1h-1zM47 12h1v1h-1zM55 12h1v1h-1zM57 12h4v1h-4zM6 13h2v1h-2zM12 13h1v1h-1zM14 13h1v1h-1zM20 13h3v1h-3zM26 13h4v1h-4zM32 13h3v1h-3zM36 13h1v1h-1zM41 13h3v1h-3zM48 13h1v1h-1zM50 13h1v1h-1zM52 13h2v1h-2zM56 13h3v1h-3zM60 13h1v1h-1zM4 14h3v1h-3zM10 14h2v1h-2zM13 14h1v1h-1zM15 14h4v1h-4zM20 14h2v1h-2zM24 14h1v1h-1zM29 14h1v1h-1zM32 14h3v1h-3zM38 14h1v1h-1zM40 14h1v1h-1zM42 14h1v1h-1zM46 14h2v1h-2zM50 14h3v1h-3zM55 14h2v1h-2zM58 14h2v1h-2zM7 15h3v1h-3zM12 15h2v1h-2zM16 15h1v1h-1zM18 15h1v1h-1zM20 15h1v1h-1zM24 15h2v1h-2zM28 15h2v1h-2zM31 15h2v1h-2zM34 15h1v1h-1zM37 15h1v1h-1zM39 15h2v1h-2zM42 15h1v1h-1zM44 15h2v1h-2zM50 15h1v1h-1zM58 15h3v1h-3zM4 16h1v1h-1zM6 16h3v1h-3zM10 16h3v1h-3zM19 16h2v1h-2zM22 16h1v1h-1zM24 16h3v1h-3zM28 16h4v1h-4zM36 16h3v1h-3zM40 16h3v1h-3zM45 16h1v1h-1zM47 16h1v1h-1zM50 16h2v1h-2zM54 16h1v1h-1zM56 16h1v1h-1zM59 16h2v1h-2zM4 17h2v1h-2zM7 17h2v1h-2zM13 17h2v1h-2zM16 17h3v1h-3zM21 17h4v1h-4zM29 17h1v1h-1zM32 17h2v1h-2zM35 17h2v1h-2zM39 17h1v1h-1zM41 17h1v1h-1zM43 17h3v1h-3zM48 17h2v1h-2zM52 17h2v1h-2zM60 17h1v1h-1zM5 18h1v1h-1zM7 18h2v1h-2zM10 18h1v1h-1zM12 18h2v1h-2zM15 18h1v1h-1zM17 18h1v1h-1zM19 18h1v1h-1zM23 18h1v1h-1zM25 18h4v1h-4zM31 18h1v1h-1zM33 18h1v1h-1zM35 18h1v1h-1zM38 18h1v1h-1zM43 18h3v1h-3zM50 18h1v1h-1zM52 18h1v1h-1zM55 18h1v1h-1zM57 18h1v1h-1zM5 19h2v1h-2zM8 19h2v1h-2zM12 19h2v1h-2zM19 19h1v1h-1zM21 19h1v1h-1zM23 19h1v1h-1zM25 19h1v1h-1zM27 19h1v1h-1zM29 19h4v1h-4zM36 19h1v1h-1zM38 19h1v1h-1zM40 19h1v1h-1zM44 19h2v1h-2zM49 19h1v1h-1zM51 19h1v1h-1zM53 19h1v1h-1zM58 19h2v1h-2zM6 20h2v1h-2zM9 20h4v1h-4zM15 20h1v1h-1zM21 20h1v1h-1zM23 20h1v1h-1zM26 20h7v1h-7zM34 20h1v1h-1zM36 20h1v1h-1zM38 20h1v1h-1zM40 20h1v1h-1zM45 20h3v1h-3zM51 20h2v1h-2zM54 20h1v1h-1zM60 20h1v1h-1zM7 21h2v1h-2zM11 21h2v1h-2zM14 21h1v1h-1zM18 21h2v1h-2zM21 21h3v1h-3zM25 21h1v1h-1zM30 21h1v1h-1zM32 21h1v1h-1zM35 21h2v1h-2zM41 21h3v1h-3zM47 21h1v1h-1zM49 21h3v1h-3zM53 21h1v1h-1zM55 21h1v1h-1zM59 21h1v1h-1zM6 22h2v1h-2zM9 22h2v1h-2zM13 22h4v1h-4zM21 22h1v1h-1zM23 22h1v1h-1zM25 22h3v1h-3zM30 22h1v1h-1zM35 22h1v1h-1zM37 22h1v1h-1zM39 22h3v1h-3zM44 22h2v1h-2zM49 22h4v1h-4zM54 22h1v1h-1zM57 22h1v1h-1zM60 22h1v1h-1zM4 23h3v1h-3zM8 23h2v1h-2zM11 23h2v1h-2zM15 23h1v1h-1zM17 23h1v1h-1zM19 23h1v1h-1zM22 23h2v1h-2zM26 23h1v1h-1zM30 23h1v1h-1zM34 23h1v1h-1zM36 23h1v1h-1zM38 23h1v1h-1zM40 23h1v1h-1zM42 23h1v1h-1zM44 23h2v1h-2zM49 23h1v1h-1zM51 23h2v1h-2zM54 23h1v1h-1zM56 23h4v1h-4zM4 24h2v1h-2zM7 24h2v1h-2zM10 24h1v1h-1zM12 24h2v1h-2zM15 24h4v1h-4zM22 24h1v1h-1zM24 24h1v1h-1zM26 24h1v1h-1zM28 24h1v1h-1zM30 24h1v1h-1zM32 24h1v1h-1zM34 24h2v1h-2zM37 24h1v1h-1zM39 24h3v1h-3zM44 24h3v1h-3zM52 24h2v1h-2zM55 24h1v1h-1zM60 24h1v1h-1zM4 25h1v1h-1zM6 25h1v1h-1zM8 25h2v1h-2zM13 25h1v1h-1zM15 25h1v1h-1zM18 25h7v1h-7zM27 25h1v1h-1zM32 25h5v1h-5zM39 25h1v1h-1zM42 25h2v1h-2zM45 25h4v1h-4zM50 25h2v1h-2zM53 25h1v1h-1zM59 25h2v1h-2zM4 26h2v1h-2zM8 26h3v1h-3zM12 26h3v1h-3zM16 26h1v1h-1zM18 26h2v1h-2zM21 26h3v1h-3zM27 26h2v1h-2zM30 26h1v1h-1zM32 26h1v1h-1zM35 26h1v1h-1zM39 26h1v1h-1zM42 26h1v1h-1zM44 26h2v1h-2zM49 26h1v1h-1zM51 26h1v1h-1zM57 26h2v1h-2zM60 26h1v1h-1zM7 27h2v1h-2zM11 27h2v1h-2zM14 27h1v1h-1zM16 27h3v1h-3zM21 27h2v1h-2zM26 27h1v1h-1zM28 27h7v1h-7zM39 27h1v1h-1zM41 27h4v1h-4zM47 27h9v1h-9zM59 27h1v1h-1zM4 28h1v1h-1zM7 28h2v1h-2zM10 28h1v1h-1zM12 28h1v1h-1zM15 28h1v1h-1zM17 28h6v1h-6zM24 28h1v1h-1zM28 28h4v1h-4zM38 28h1v1h-1zM40 28h1v1h-1zM44 28h1v1h-1zM46 28h3v1h-3zM50 28h1v1h-1zM52 28h4v1h-4zM60 28h1v1h-1zM4 29h1v1h-1zM7 29h3v1h-3zM11 29h1v1h-1zM13 29h3v1h-3zM23 29h1v1h-1zM25 29h5v1h-5zM31 29h1v1h-1zM34 29h2v1h-2zM37 29h2v1h-2zM40 29h3v1h-3zM44 29h2v1h-2zM48 29h1v1h-1zM50 29h3v1h-3zM54 29h1v1h-1zM60 29h1v1h-1zM4 30h3v1h-3zM8 30h5v1h-5zM14 30h5v1h-5zM20 30h1v1h-1zM22 30h1v1h-1zM24 30h3v1h-3zM28 30h1v1h-1zM30 30h10v1h-10zM43 30h1v1h-1zM47 30h4v1h-4zM52 30h5v1h-5zM58 30h3v1h-3zM4 31h5v1h-5zM12 31h2v1h-2zM15 31h4v1h-4zM21 31h3v1h-3zM26 31h5v1h-5zM34 31h4v1h-4zM39 31h1v1h-1zM41 31h3v1h-3zM45 31h3v1h-3zM49 31h1v1h-1zM51 31h2v1h-2zM56 31h1v1h-1zM60 31h1v1h-1zM8 32h1v1h-1zM10 32h1v1h-1zM12 32h1v1h-1zM16 32h2v1h-2zM21 32h1v1h-1zM23 32h2v1h-2zM29 32h2v1h-2zM32 32h1v1h-1zM34 32h4v1h-4zM39 32h4v1h-4zM44 32h1v1h-1zM48 32h1v1h-1zM52 32h1v1h-1zM54 32h1v1h-1zM56 32h4v1h-4zM4 33h1v1h-1zM6 33h1v1h-1zM8 33h1v1h-1zM12 33h1v1h-1zM14 33h1v1h-1zM16 33h1v1h-1zM20 33h1v1h-1zM22 33h1v1h-1zM25 33h1v1h-1zM27 33h4v1h-4zM34 33h1v1h-1zM38 33h4v1h-4zM46 33h3v1h-3zM52 33h1v1h-1zM56 33h5v1h-5zM4 34h1v1h-1zM6 34h7v1h-7zM15 34h4v1h-4zM20 34h1v1h-1zM25 34h3v1h-3zM29 34h6v1h-6zM36 34h3v1h-3zM40 34h1v1h-1zM43 34h1v1h-1zM46 34h4v1h-4zM52 34h6v1h-6zM59 34h2v1h-2zM6 35h2v1h-2zM9 35h1v1h-1zM11 35h1v1h-1zM13 35h1v1h-1zM19 35h4v1h-4zM24 35h2v1h-2zM31 35h2v1h-2zM35 35h1v1h-1zM37 35h1v1h-1zM39 35h1v1h-1zM41 35h1v1h-1zM43 35h4v1h-4zM48 35h1v1h-1zM50 35h2v1h-2zM53 35h1v1h-1zM56 35h1v1h-1zM58 35h1v1h-1zM4 36h1v1h-1zM9 36h4v1h-4zM15 36h2v1h-2zM18 36h1v1h-1zM20 36h1v1h-1zM25 36h1v1h-1zM29 36h1v1h-1zM34 36h3v1h-3zM41 36h4v1h-4zM48 36h2v1h-2zM51 36h3v1h-3zM55 36h1v1h-1zM57 36h3v1h-3zM4 37h3v1h-3zM11 37h2v1h-2zM14 37h1v1h-1zM16 37h2v1h-2zM19 37h1v1h-1zM21 37h4v1h-4zM29 37h1v1h-1zM31 37h1v1h-1zM33 37h2v1h-2zM37 37h4v1h-4zM42 37h1v1h-1zM46 37h3v1h-3zM51 37h1v1h-1zM53 37h1v1h-1zM55 37h1v1h-1zM58 37h1v1h-1zM4 38h1v1h-1zM6 38h1v1h-1zM9 38h2v1h-2zM14 38h4v1h-4zM19 38h1v1h-1zM23 38h1v1h-1zM25 38h1v1h-1zM27 38h1v1h-1zM31 38h1v1h-1zM33 38h1v1h-1zM37 38h3v1h-3zM42 38h2v1h-2zM46 38h2v1h-2zM50 38h3v1h-3zM56 38h1v1h-1zM58 38h1v1h-1zM5 39h1v1h-1zM8 39h1v1h-1zM11 39h3v1h-3zM15 39h1v1h-1zM18 39h2v1h-2zM21 39h1v1h-1zM23 39h3v1h-3zM29 39h4v1h-4zM36 39h3v1h-3zM42 39h1v1h-1zM44 39h1v1h-1zM48 39h4v1h-4zM53 39h5v1h-5zM59 39h1v1h-1zM4 40h4v1h-4zM9 40h2v1h-2zM12 40h1v1h-1zM14 40h2v1h-2zM17 40h1v1h-1zM19 40h1v1h-1zM21 40h4v1h-4zM27 40h2v1h-2zM30 40h2v1h-2zM34 40h3v1h-3zM47 40h6v1h-6zM54 40h1v1h-1zM56 40h3v1h-3zM4 41h1v1h-1zM8 41h2v1h-2zM11 41h2v1h-2zM15 41h1v1h-1zM18 41h1v1h-1zM25 41h2v1h-2zM28 41h1v1h-1zM30 41h1v1h-1zM36 41h1v1h-1zM38 41h1v1h-1zM42 41h2v1h-2zM46 41h3v1h-3zM51 41h1v1h-1zM53 41h1v1h-1zM56 41h1v1h-1zM60 41h1v1h-1zM5 42h2v1h-2zM9 42h5v1h-5zM15 42h4v1h-4zM20 42h3v1h-3zM24 42h1v1h-1zM26 42h1v1h-1zM30 42h1v1h-1zM32 42h4v1h-4zM37 42h1v1h-1zM39 42h3v1h-3zM45 42h2v1h-2zM48 42h1v1h-1zM50 42h2v1h-2zM54 42h1v1h-1zM56 42h1v1h-1zM58 42h3v1h-3zM9 43h1v1h-1zM11 43h4v1h-4zM16 43h5v1h-5zM22 43h3v1h-3zM26 43h2v1h-2zM30 43h3v1h-3zM35 43h1v1h-1zM37 43h2v1h-2zM44 43h1v1h-1zM48 43h1v1h-1zM53 43h3v1h-3zM60 43h1v1h-1zM5 44h2v1h-2zM10 44h1v1h-1zM12 44h5v1h-5zM20 44h3v1h-3zM24 44h1v1h-1zM26 44h1v1h-1zM29 44h2v1h-2zM32 44h1v1h-1zM34 44h4v1h-4zM39 44h1v1h-1zM41 44h1v1h-1zM43 44h1v1h-1zM47 44h1v1h-1zM50 44h1v1h-1zM52 44h2v1h-2zM58 44h2v1h-2zM4 45h2v1h-2zM8 45h2v1h-2zM12 45h1v1h-1zM14 45h1v1h-1zM20 45h1v1h-1zM22 45h1v1h-1zM26 45h4v1h-4zM32 45h3v1h-3zM36 45h1v1h-1zM39 45h1v1h-1zM41 45h1v1h-1zM43 45h2v1h-2zM48 45h2v1h-2zM51 45h1v1h-1zM56 45h3v1h-3zM60 45h1v1h-1zM4 46h2v1h-2zM7 46h2v1h-2zM10 46h3v1h-3zM14 46h1v1h-1zM16 46h3v1h-3zM20 46h2v1h-2zM27 46h2v1h-2zM32 46h3v1h-3zM38 46h1v1h-1zM40 46h2v1h-2zM43 46h2v1h-2zM48 46h5v1h-5zM55 46h1v1h-1zM60 46h1v1h-1zM4 47h1v1h-1zM6 47h1v1h-1zM9 47h1v1h-1zM12 47h2v1h-2zM16 47h1v1h-1zM19 47h1v1h-1zM23 47h1v1h-1zM25 47h1v1h-1zM27 47h4v1h-4zM32 47h2v1h-2zM35 47h1v1h-1zM38 47h5v1h-5zM44 47h3v1h-3zM49 47h1v1h-1zM53 47h5v1h-5zM60 47h1v1h-1zM4 48h5v1h-5zM10 48h3v1h-3zM14 48h2v1h-2zM19 48h1v1h-1zM22 48h2v1h-2zM25 48h8v1h-8zM34 48h2v1h-2zM37 48h1v1h-1zM45 48h1v1h-1zM47 48h1v1h-1zM49 48h1v1h-1zM52 48h4v1h-4zM58 48h1v1h-1zM60 48h1v1h-1zM5 49h1v1h-1zM7 49h1v1h-1zM9 49h1v1h-1zM11 49h5v1h-5zM17 49h1v1h-1zM19 49h1v1h-1zM21 49h4v1h-4zM28 49h2v1h-2zM33 49h4v1h-4zM39 49h3v1h-3zM43 49h1v1h-1zM45 49h3v1h-3zM51 49h2v1h-2zM54 49h6v1h-6zM4 50h1v1h-1zM6 50h1v1h-1zM9 50h4v1h-4zM14 50h2v1h-2zM19 50h4v1h-4zM24 50h1v1h-1zM28 50h2v1h-2zM31 50h1v1h-1zM33 50h1v1h-1zM35 50h1v1h-1zM39 50h3v1h-3zM44 50h2v1h-2zM49 50h1v1h-1zM54 50h2v1h-2zM57 50h2v1h-2zM4 51h5v1h-5zM11 51h1v1h-1zM13 51h1v1h-1zM16 51h1v1h-1zM21 51h3v1h-3zM26 51h2v1h-2zM29 51h1v1h-1zM31 51h1v1h-1zM34 51h1v1h-1zM36 51h1v1h-1zM38 51h1v1h-1zM43 51h1v1h-1zM45 51h1v1h-1zM47 51h1v1h-1zM49 51h1v1h-1zM51 51h1v1h-1zM55 51h1v1h-1zM57 51h2v1h-2zM60 51h1v1h-1zM10 52h3v1h-3zM14 52h6v1h-6zM21 52h1v1h-1zM23 52h3v1h-3zM29 52h7v1h-7zM37 52h1v1h-1zM39 52h3v1h-3zM45 52h4v1h-4zM51 52h8v1h-8zM60 52h1v1h-1zM12 53h2v1h-2zM16 53h1v1h-1zM19 53h1v1h-1zM21 53h2v1h-2zM24 53h1v1h-1zM26 53h1v1h-1zM28 53h3v1h-3zM34 53h3v1h-3zM40 53h2v1h-2zM44 53h3v1h-3zM50 53h1v1h-1zM52 53h1v1h-1zM56 53h3v1h-3zM60 53h1v1h-1zM4 54h7v1h-7zM14 54h1v1h-1zM21 54h1v1h-1zM24 54h3v1h-3zM30 54h1v1h-1zM32 54h1v1h-1zM34 54h1v1h-1zM36 54h1v1h-1zM38 54h1v1h-1zM40 54h1v1h-1zM44 54h2v1h-2zM49 54h1v1h-1zM52 54h1v1h-1zM54 54h1v1h-1zM56 54h2v1h-2zM59 54h2v1h-2zM4 55h1v1h-1zM10 55h1v1h-1zM12 55h2v1h-2zM15 55h3v1h-3zM19 55h4v1h-4zM24 55h1v1h-1zM26 55h1v1h-1zM29 55h2v1h-2zM34 55h2v1h-2zM37 55h3v1h-3zM43 55h4v1h-4zM50 55h3v1h-3zM56 55h1v1h-1zM4 56h1v1h-1zM6 56h3v1h-3zM10 56h1v1h-1zM12 56h3v1h-3zM16 56h3v1h-3zM24 56h2v1h-2zM28 56h7v1h-7zM36 56h3v1h-3zM40 56h3v1h-3zM44 56h1v1h-1zM46 56h2v1h-2zM51 56h6v1h-6zM4 57h1v1h-1zM6 57h3v1h-3zM10 57h1v1h-1zM18 57h3v1h-3zM22 57h3v1h-3zM27 57h1v1h-1zM29 57h1v1h-1zM31 57h1v1h-1zM33 57h1v1h-1zM35 57h2v1h-2zM39 57h1v1h-1zM42 57h4v1h-4zM47 57h1v1h-1zM49 57h1v1h-1zM51 57h5v1h-5zM57 57h1v1h-1zM59 57h1v1h-1zM4 58h1v1h-1zM6 58h3v1h-3zM10 58h1v1h-1zM13 58h3v1h-3zM17 58h1v1h-1zM19 58h1v1h-1zM22 58h2v1h-2zM26 58h3v1h-3zM32 58h5v1h-5zM38 58h1v1h-1zM44 58h2v1h-2zM48 58h2v1h-2zM52 58h2v1h-2zM56 58h1v1h-1zM4 59h1v1h-1zM10 59h1v1h-1zM12 59h1v1h-1zM18 59h1v1h-1zM25 59h1v1h-1zM28 59h4v1h-4zM34 59h1v1h-1zM44 59h3v1h-3zM48 59h1v1h-1zM51 59h1v1h-1zM53 59h1v1h-1zM55 59h2v1h-2zM60 59h1v1h-1zM4 60h7v1h-7zM12 60h3v1h-3zM16 60h1v1h-1zM20 60h3v1h-3zM26 60h3v1h-3zM30 60h1v1h-1zM34 60h1v1h-1zM38 60h1v1h-1zM40 60h2v1h-2zM43 60h2v1h-2zM48 60h2v1h-2zM51 60h4v1h-4zM56 60h1v1h-1zM59 60h2v1h-2z" fill="#000"/></svg>