<svg xmlns="http://www.w3.org/2000/svg" viewBox="0 0 61 61" width="488" height="488" shape-rendering="crispEdges"><rect width="61" height="61" fill="#fff"/><path d="M4 4h7v1h-7zM12 4h4v1h-4zM18 4h2v1h-2zM22 4h2v1h-2zM27 4h1v1h-1zM30 4h2v1h-2zM34 4h2v1h-2zM37 4h1v1h-1zM39 4h2v1h-2zM43 4h4v1h-4zM50 4h7v1h-7zM4 5h1v1h-1zM10 5h1v1h-1zM12 5h4v1h-4zM17 5h1v1h-1zM20 5h1v1h-1zM22 5h1v1h-1zM24 5h1v1h-1zM26 5h1v1h-1zM28 5h2v1h-2zM31 5h1v1h-1zM37 5h1v1h-1zM39 5h1v1h-1zM41 5h3v1h-3zM46 5h2v1h-2zM50 5h1v1h-1zM56 5h1v1h-1zM4 6h1v1h-1zM6 6h3v1h-3zM10 6h1v1h-1zM13 6h1v1h-1zM17 6h1v1h-1zM21 6h1v1h-1zM24 6h1v1h-1zM28 6h3v1h-3zM34 6h1v1h-1zM38 6h4v1h-4zM43 6h3v1h-3zM47 6h1v1h-1zM50 6h1v1h-1zM52 6h3v1h-3zM56 6h1v1h-1zM4 7h1v1h-1zM6 7h3v1h-3zM10 7h1v1h-1zM14 7h3v1h-3zM25 7h1v1h-1zM28 7h3v1h-3zM32 7h1v1h-1zM34 7h1v1h-1zM36 7h1v1h-1zM38 7h2v1h-2zM42 7h1v1h-1zM44 7h3v1h-3zM48 7h1v1h-1zM50 7h1v1h-1zM52 7h3v1h-3zM56 7h1v1h-1zM4 8h1v1h-1zM6 8h3v1h-3zM10 8h1v1h-1zM12 8h1v1h-1zM14 8h1v1h-1zM16 8h2v1h-2zM20 8h1v1h-1zM23 8h1v1h-1zM26 8h1v1h-1zM28 8h8v1h-8zM37 8h2v1h-2zM40 8h3v1h-3zM44 8h3v1h-3zM50 8h1v1h-1zM52 8h3v1h-3zM56 8h1v1h-1zM4 9h1v1h-1zM10 9h1v1h-1zM12 9h1v1h-1zM16 9h1v1h-1zM18 9h2v1h-2zM22 9h2v1h-2zM25 9h1v1h-1zM28 9h1v1h-1zM32 9h4v1h-4zM38 9h1v1h-1zM41 9h2v1h-2zM45 9h2v1h-2zM50 9h1v1h-1zM56 9h1v1h-1zM4 10h7v1h-7zM12 10h1v1h-1zM14 10h1v1h-1zM16 10h1v1h-1zM18 10h1v1h-1zM20 10h1v1h-1zM22 10h1v1h-1zM24 10h1v1h-1zM26 10h1v1h-1zM28 10h1v1h-1zM30 10h1v1h-1zM32 10h1v1h-1zM34 10h1v1h-1zM36 10h1v1h-1zM38 10h1v1h-1zM40 10h1v1h-1zM42 10h1v1h-1zM44 10h1v1h-1zM46 10h1v1h-1zM48 10h1v1h-1zM50 10h7v1h-7zM12 11h4v1h-4zM18 11h1v1h-1zM22 11h1v1h-1zM28 11h1v1h-1zM32 11h4v1h-4zM39 11h1v1h-1zM43 11h1v1h-1zM45 11h1v1h-1zM47 11h2v1h-2zM4 12h3v1h-3zM9 12h2v1h-2zM12 12h1v1h-1zM14 12h7v1h-7zM24 12h1v1h-1zM28 12h5v1h-5zM34 12h2v1h-2zM37 12h1v1h-1zM39 12h1v1h-1zM41 12h1v1h-1zM43 12h4v1h-4zM49 12h4v1h-4zM55 12h2v1h-2zM8 13h2v1h-2zM12 13h1v1h-1zM14 13h1v1h-1zM16 13h6v1h-6zM23 13h3v1h-3zM28 13h1v1h-1zM33 13h1v1h-1zM36 13h1v1h-1zM38 13h1v1h-1zM44 13h2v1h-2zM50 13h1v1h-1zM56 13h1v1h-1zM4 14h1v1h-1zM6 14h1v1h-1zM10 14h1v1h-1zM12 14h1v1h-1zM15 14h3v1h-3zM19 14h9v1h-9zM31 14h1v1h-1zM33 14h1v1h-1zM35 14h2v1h-2zM38 14h1v1h-1zM40 14h1v1h-1zM42 14h1v1h-1zM44 14h1v1h-1zM46 14h2v1h-2zM49 14h1v1h-1zM51 14h2v1h-2zM54 14h3v1h-3zM4 15h2v1h-2zM8 15h1v1h-1zM12 15h3v1h-3zM16 15h1v1h-1zM19 15h1v1h-1zM21 15h1v1h-1zM23 15h1v1h-1zM25 15h1v1h-1zM28 15h1v1h-1zM31 15h1v1h-1zM36 15h1v1h-1zM38 15h3v1h-3zM43 15h1v1h-1zM47 15h2v1h-2zM50 15h1v1h-1zM53 15h1v1h-1zM6 16h2v1h-2zM10 16h2v1h-2zM13 16h2v1h-2zM16 16h1v1h-1zM22 16h1v1h-1zM24 16h2v1h-2zM28 16h2v1h-2zM31 16h1v1h-1zM33 16h1v1h-1zM35 16h1v1h-1zM37 16h4v1h-4zM42 16h1v1h-1zM44 16h1v1h-1zM46 16h4v1h-4zM51 16h1v1h-1zM53 16h2v1h-2zM56 16h1v1h-1zM8 17h2v1h-2zM12 17h2v1h-2zM16 17h1v1h-1zM23 17h1v1h-1zM27 17h1v1h-1zM32 17h1v1h-1zM34 17h2v1h-2zM37 17h2v1h-2zM40 17h2v1h-2zM46 17h1v1h-1zM48 17h1v1h-1zM51 17h1v1h-1zM55 17h2v1h-2zM4 18h2v1h-2zM10 18h2v1h-2zM16 18h1v1h-1zM19 18h1v1h-1zM21 18h4v1h-4zM26 18h1v1h-1zM28 18h3v1h-3zM32 18h1v1h-1zM34 18h1v1h-1zM36 18h4v1h-4zM41 18h2v1h-2zM45 18h3v1h-3zM51 18h2v1h-2zM54 18h3v1h-3zM4 19h1v1h-1zM6 19h2v1h-2zM11 19h3v1h-3zM15 19h1v1h-1zM18 19h1v1h-1zM20 19h5v1h-5zM26 19h2v1h-2zM30 19h1v1h-1zM32 19h1v1h-1zM34 19h2v1h-2zM40 19h2v1h-2zM43 19h3v1h-3zM49 19h1v1h-1zM52 19h2v1h-2zM56 19h1v1h-1zM6 20h1v1h-1zM8 20h4v1h-4zM13 20h2v1h-2zM17 20h2v1h-2zM22 20h1v1h-1zM25 20h1v1h-1zM29 20h1v1h-1zM31 20h1v1h-1zM33 20h1v1h-1zM35 20h1v1h-1zM37 20h1v1h-1zM39 20h1v1h-1zM41 20h2v1h-2zM45 20h1v1h-1zM48 20h3v1h-3zM52 20h4v1h-4zM4 21h6v1h-6zM12 21h1v1h-1zM14 21h3v1h-3zM19 21h3v1h-3zM24 21h2v1h-2zM30 21h1v1h-1zM32 21h1v1h-1zM37 21h1v1h-1zM42 21h1v1h-1zM45 21h1v1h-1zM50 21h2v1h-2zM53 21h1v1h-1zM55 21h1v1h-1zM4 22h2v1h-2zM7 22h1v1h-1zM9 22h2v1h-2zM15 22h2v1h-2zM18 22h2v1h-2zM22 22h2v1h-2zM25 22h1v1h-1zM29 22h1v1h-1zM31 22h2v1h-2zM36 22h1v1h-1zM38 22h1v1h-1zM40 22h1v1h-1zM42 22h1v1h-1zM48 22h2v1h-2zM51 22h1v1h-1zM53 22h1v1h-1zM56 22h1v1h-1zM5 23h4v1h-4zM11 23h5v1h-5zM17 23h1v1h-1zM19 23h1v1h-1zM22 23h2v1h-2zM26 23h1v1h-1zM29 23h1v1h-1zM31 23h2v1h-2zM34 23h4v1h-4zM41 23h1v1h-1zM46 23h3v1h-3zM51 23h1v1h-1zM55 23h1v1h-1zM9 24h4v1h-4zM15 24h12v1h-12zM28 24h3v1h-3zM32 24h2v1h-2zM35 24h2v1h-2zM38 24h2v1h-2zM41 24h1v1h-1zM43 24h1v1h-1zM45 24h1v1h-1zM47 24h1v1h-1zM50 24h1v1h-1zM52 24h2v1h-2zM4 25h2v1h-2zM8 25h2v1h-2zM11 25h2v1h-2zM17 25h1v1h-1zM20 25h1v1h-1zM22 25h1v1h-1zM24 25h5v1h-5zM31 25h1v1h-1zM33 25h3v1h-3zM39 25h1v1h-1zM44 25h1v1h-1zM47 25h1v1h-1zM49 25h1v1h-1zM53 25h1v1h-1zM6 26h1v1h-1zM9 26h5v1h-5zM20 26h2v1h-2zM23 26h1v1h-1zM25 26h1v1h-1zM28 26h1v1h-1zM32 26h1v1h-1zM34 26h1v1h-1zM38 26h4v1h-4zM43 26h2v1h-2zM47 26h4v1h-4zM54 26h2v1h-2zM4 27h1v1h-1zM11 27h1v1h-1zM14 27h2v1h-2zM18 27h1v1h-1zM22 27h1v1h-1zM26 27h4v1h-4zM31 27h2v1h-2zM35 27h1v1h-1zM40 27h1v1h-1zM43 27h1v1h-1zM47 27h1v1h-1zM50 27h2v1h-2zM53 27h1v1h-1zM55 27h1v1h-1zM5 28h1v1h-1zM8 28h6v1h-6zM15 28h1v1h-1zM19 28h3v1h-3zM23 28h1v1h-1zM27 28h6v1h-6zM34 28h2v1h-2zM37 28h1v1h-1zM39 28h3v1h-3zM43 28h2v1h-2zM47 28h7v1h-7zM55 28h2v1h-2zM8 29h1v1h-1zM12 29h1v1h-1zM20 29h1v1h-1zM24 29h2v1h-2zM27 29h2v1h-2zM32 29h1v1h-1zM37 29h1v1h-1zM39 29h1v1h-1zM42 29h1v1h-1zM44 29h5v1h-5zM52 29h1v1h-1zM54 29h1v1h-1zM56 29h1v1h-1zM4 30h2v1h-2zM8 30h1v1h-1zM10 30h1v1h-1zM12 30h1v1h-1zM15 30h1v1h-1zM17 30h1v1h-1zM19 30h3v1h-3zM24 30h5v1h-5zM30 30h1v1h-1zM32 30h1v1h-1zM36 30h3v1h-3zM40 30h1v1h-1zM42 30h3v1h-3zM46 30h1v1h-1zM48 30h1v1h-1zM50 30h1v1h-1zM52 30h4v1h-4zM4 31h2v1h-2zM7 31h2v1h-2zM12 31h1v1h-1zM19 31h2v1h-2zM23 31h1v1h-1zM25 31h1v1h-1zM27 31h2v1h-2zM32 31h2v1h-2zM35 31h1v1h-1zM38 31h2v1h-2zM42 31h1v1h-1zM44 31h1v1h-1zM47 31h2v1h-2zM52 31h5v1h-5zM4 32h1v1h-1zM6 32h8v1h-8zM16 32h2v1h-2zM20 32h1v1h-1zM23 32h1v1h-1zM26 32h9v1h-9zM37 32h2v1h-2zM40 32h3v1h-3zM44 32h1v1h-1zM46 32h9v1h-9zM6 33h2v1h-2zM9 33h1v1h-1zM14 33h1v1h-1zM18 33h2v1h-2zM23 33h1v1h-1zM27 33h1v1h-1zM29 33h1v1h-1zM38 33h1v1h-1zM41 33h2v1h-2zM45 33h1v1h-1zM50 33h3v1h-3zM55 33h1v1h-1zM4 34h1v1h-1zM6 34h3v1h-3zM10 34h3v1h-3zM15 34h1v1h-1zM17 34h4v1h-4zM23 34h2v1h-2zM26 34h1v1h-1zM31 34h2v1h-2zM37 34h1v1h-1zM41 34h2v1h-2zM44 34h3v1h-3zM49 34h5v1h-5zM56 34h1v1h-1zM5 35h1v1h-1zM11 35h1v1h-1zM13 35h2v1h-2zM16 35h2v1h-2zM19 35h3v1h-3zM23 35h1v1h-1zM29 35h1v1h-1zM31 35h1v1h-1zM33 35h1v1h-1zM36 35h1v1h-1zM38 35h1v1h-1zM40 35h1v1h-1zM43 35h1v1h-1zM45 35h2v1h-2zM50 35h5v1h-5zM5 36h2v1h-2zM8 36h1v1h-1zM10 36h1v1h-1zM12 36h1v1h-1zM16 36h3v1h-3zM22 36h1v1h-1zM25 36h1v1h-1zM29 36h2v1h-2zM32 36h1v1h-1zM34 36h2v1h-2zM37 36h1v1h-1zM39 36h3v1h-3zM43 36h1v1h-1zM47 36h1v1h-1zM50 36h4v1h-4zM4 37h5v1h-5zM12 37h2v1h-2zM15 37h3v1h-3zM20 37h1v1h-1zM25 37h1v1h-1zM29 37h2v1h-2zM32 37h1v1h-1zM34 37h1v1h-1zM37 37h1v1h-1zM39 37h1v1h-1zM41 37h1v1h-1zM44 37h1v1h-1zM46 37h2v1h-2zM50 37h1v1h-1zM52 37h2v1h-2zM55 37h1v1h-1zM8 38h6v1h-6zM17 38h3v1h-3zM22 38h1v1h-1zM24 38h1v1h-1zM26 38h1v1h-1zM28 38h3v1h-3zM32 38h2v1h-2zM36 38h4v1h-4zM42 38h1v1h-1zM47 38h5v1h-5zM54 38h3v1h-3zM4 39h5v1h-5zM17 39h3v1h-3zM21 39h1v1h-1zM23 39h2v1h-2zM26 39h7v1h-7zM34 39h1v1h-1zM36 39h1v1h-1zM41 39h1v1h-1zM43 39h1v1h-1zM45 39h1v1h-1zM47 39h1v1h-1zM50 39h1v1h-1zM56 39h1v1h-1zM6 40h3v1h-3zM10 40h1v1h-1zM12 40h3v1h-3zM17 40h6v1h-6zM24 40h5v1h-5zM30 40h2v1h-2zM33 40h1v1h-1zM36 40h1v1h-1zM39 40h1v1h-1zM42 40h4v1h-4zM47 40h1v1h-1zM49 40h4v1h-4zM54 40h1v1h-1zM56 40h1v1h-1zM4 41h3v1h-3zM8 41h2v1h-2zM11 41h1v1h-1zM14 41h4v1h-4zM20 41h2v1h-2zM26 41h4v1h-4zM32 41h1v1h-1zM34 41h2v1h-2zM40 41h1v1h-1zM43 41h2v1h-2zM47 41h2v1h-2zM51 41h1v1h-1zM54 41h1v1h-1zM6 42h1v1h-1zM10 42h1v1h-1zM16 42h1v1h-1zM19 42h1v1h-1zM25 42h3v1h-3zM30 42h1v1h-1zM33 42h2v1h-2zM38 42h3v1h-3zM42 42h4v1h-4zM48 42h2v1h-2zM51 42h1v1h-1zM53 42h1v1h-1zM55 42h1v1h-1zM4 43h6v1h-6zM11 43h1v1h-1zM13 43h2v1h-2zM16 43h1v1h-1zM18 43h1v1h-1zM21 43h1v1h-1zM26 43h1v1h-1zM28 43h2v1h-2zM33 43h1v1h-1zM36 43h1v1h-1zM38 43h1v1h-1zM40 43h1v1h-1zM43 43h1v1h-1zM47 43h1v1h-1zM52 43h1v1h-1zM56 43h1v1h-1zM8 44h1v1h-1zM10 44h5v1h-5zM19 44h1v1h-1zM22 44h2v1h-2zM25 44h1v1h-1zM29 44h1v1h-1zM31 44h1v1h-1zM33 44h1v1h-1zM35 44h2v1h-2zM38 44h4v1h-4zM43 44h3v1h-3zM48 44h2v1h-2zM51 44h1v1h-1zM53 44h1v1h-1zM55 44h2v1h-2zM7 45h1v1h-1zM9 45h1v1h-1zM12 45h1v1h-1zM14 45h1v1h-1zM16 45h1v1h-1zM20 45h1v1h-1zM22 45h1v1h-1zM24 45h1v1h-1zM28 45h1v1h-1zM30 45h1v1h-1zM32 45h1v1h-1zM34 45h2v1h-2zM37 45h1v1h-1zM39 45h1v1h-1zM41 45h1v1h-1zM44 45h1v1h-1zM51 45h1v1h-1zM54 45h2v1h-2zM4 46h2v1h-2zM7 46h4v1h-4zM12 46h1v1h-1zM15 46h1v1h-1zM17 46h1v1h-1zM20 46h2v1h-2zM24 46h2v1h-2zM28 46h2v1h-2zM32 46h1v1h-1zM36 46h4v1h-4zM41 46h3v1h-3zM48 46h1v1h-1zM51 46h4v1h-4zM56 46h1v1h-1zM5 47h2v1h-2zM11 47h1v1h-1zM19 47h1v1h-1zM24 47h1v1h-1zM28 47h1v1h-1zM30 47h1v1h-1zM32 47h2v1h-2zM37 47h1v1h-1zM40 47h1v1h-1zM42 47h1v1h-1zM44 47h1v1h-1zM46 47h1v1h-1zM48 47h1v1h-1zM51 47h1v1h-1zM54 47h2v1h-2zM7 48h1v1h-1zM10 48h3v1h-3zM15 48h2v1h-2zM18 48h2v1h-2zM21 48h1v1h-1zM23 48h1v1h-1zM27 48h8v1h-8zM36 48h3v1h-3zM40 48h4v1h-4zM45 48h9v1h-9zM56 48h1v1h-1zM12 49h1v1h-1zM15 49h3v1h-3zM19 49h1v1h-1zM22 49h1v1h-1zM24 49h1v1h-1zM28 49h1v1h-1zM32 49h2v1h-2zM37 49h1v1h-1zM42 49h1v1h-1zM45 49h2v1h-2zM48 49h1v1h-1zM52 49h3v1h-3zM56 49h1v1h-1zM4 50h7v1h-7zM15 50h2v1h-2zM19 50h3v1h-3zM23 50h2v1h-2zM27 50h2v1h-2zM30 50h1v1h-1zM32 50h2v1h-2zM37 50h1v1h-1zM40 50h2v1h-2zM43 50h1v1h-1zM45 50h2v1h-2zM48 50h1v1h-1zM50 50h1v1h-1zM52 50h3v1h-3zM56 50h1v1h-1zM4 51h1v1h-1zM10 51h1v1h-1zM12 51h1v1h-1zM16 51h1v1h-1zM19 51h1v1h-1zM21 51h1v1h-1zM24 51h1v1h-1zM26 51h3v1h-3zM32 51h2v1h-2zM36 51h1v1h-1zM38 51h1v1h-1zM42 51h1v1h-1zM45 51h4v1h-4zM52 51h3v1h-3zM4 52h1v1h-1zM6 52h3v1h-3zM10 52h1v1h-1zM17 52h2v1h-2zM21 52h1v1h-1zM23 52h1v1h-1zM26 52h11v1h-11zM38 52h1v1h-1zM40 52h2v1h-2zM44 52h2v1h-2zM47 52h7v1h-7zM56 52h1v1h-1zM4 53h1v1h-1zM6 53h3v1h-3zM10 53h1v1h-1zM13 53h1v1h-1zM15 53h2v1h-2zM18 53h1v1h-1zM22 53h2v1h-2zM27 53h3v1h-3zM32 53h4v1h-4zM39 53h1v1h-1zM41 53h1v1h-1zM43 53h1v1h-1zM45 53h1v1h-1zM47 53h1v1h-1zM51 53h1v1h-1zM56 53h1v1h-1zM4 54h1v1h-1zM6 54h3v1h-3zM10 54h1v1h-1zM12 54h1v1h-1zM16 54h1v1h-1zM20 54h3v1h-3zM24 54h1v1h-1zM26 54h2v1h-2zM29 54h1v1h-1zM32 54h1v1h-1zM34 54h2v1h-2zM37 54h1v1h-1zM39 54h1v1h-1zM41 54h5v1h-5zM47 54h2v1h-2zM51 54h2v1h-2zM55 54h1v1h-1zM4 55h1v1h-1zM10 55h1v1h-1zM12 55h2v1h-2zM15 55h1v1h-1zM17 55h9v1h-9zM30 55h1v1h-1zM32 55h2v1h-2zM39 55h1v1h-1zM43 55h1v1h-1zM45 55h1v1h-1zM47 55h1v1h-1zM52 55h1v1h-1zM56 55h1v1h-1zM4 56h7v1h-7zM12 56h7v1h-7zM20 56h3v1h-3zM24 56h4v1h-4zM30 56h1v1h-1zM32 56h1v1h-1zM35 56h1v1h-1zM37 56h1v1h-1zM39 56h2v1h-2zM43 56h2v1h-2zM46 56h1v1h-1zM48 56h1v1h-1zM50 56h2v1h-2zM54 56h3v1h-3z" fill="#000"/></svg>