<svg xmlns="http://www.w3.org/2000/svg" viewBox="0 0 61 61" width="488" height="488" shape-rendering="crispEdges"><rect width="61" height="61" fill="#fff"/><path d="M4 4h7v1h-7zM12 4h1v1h-1zM14 4h1v1h-1zM16 4h1v1h-1zM18 4h1v1h-1zM20 4h2v1h-2zM23 4h1v1h-1zM25 4h1v1h-1zM27 4h2v1h-2zM30 4h2v1h-2zM34 4h1v1h-1zM36 4h5v1h-5zM43 4h4v1h-4zM50 4h7v1h-7zM4 5h1v1h-1zM10 5h1v1h-1zM13 5h1v1h-1zM15 5h6v1h-6zM23 5h2v1h-2zM26 5h3v1h-3zM30 5h2v1h-2zM33 5h2v1h-2zM36 5h5v1h-5zM43 5h1v1h-1zM45 5h3v1h-3zM50 5h1v1h-1zM56 5h1v1h-1zM4 6h1v1h-1zM6 6h3v1h-3zM10 6h1v1h-1zM14 6h1v1h-1zM16 6h1v1h-1zM18 6h2v1h-2zM29 6h1v1h-1zM33 6h5v1h-5zM40 6h1v1h-1zM42 6h2v1h-2zM47 6h1v1h-1zM50 6h1v1h-1zM52 6h3v1h-3zM56 6h1v1h-1zM4 7h1v1h-1zM6 7h3v1h-3zM10 7h1v1h-1zM14 7h2v1h-2zM18 7h1v1h-1zM21 7h1v1h-1zM24 7h3v1h-3zM31 7h1v1h-1zM33 7h2v1h-2zM36 7h5v1h-5zM43 7h4v1h-4zM48 7h1v1h-1zM50 7h1v1h-1zM52 7h3v1h-3zM56 7h1v1h-1zM4 8h1v1h-1zM6 8h3v1h-3zM10 8h1v1h-1zM13 8h1v1h-1zM17 8h1v1h-1zM19 8h4v1h-4zM24 8h3v1h-3zM28 8h10v1h-10zM40 8h1v1h-1zM46 8h1v1h-1zM50 8h1v1h-1zM52 8h3v1h-3zM56 8h1v1h-1zM4 9h1v1h-1zM10 9h1v1h-1zM13 9h4v1h-4zM18 9h3v1h-3zM22 9h2v1h-2zM25 9h4v1h-4zM32 9h2v1h-2zM36 9h1v1h-1zM39 9h1v1h-1zM43 9h1v1h-1zM46 9h1v1h-1zM50 9h1v1h-1zM56 9h1v1h-1zM4 10h7v1h-7zM12 10h1v1h-1zM14 10h1v1h-1zM16 10h1v1h-1zM18 10h1v1h-1zM20 10h1v1h-1zM22 10h1v1h-1zM24 10h1v1h-1zM26 10h1v1h-1zM28 10h1v1h-1zM30 10h1v1h-1zM32 10h1v1h-1zM34 10h1v1h-1zM36 10h1v1h-1zM38 10h1v1h-1zM40 10h1v1h-1zM42 10h1v1h-1zM44 10h1v1h-1zM46 10h1v1h-1zM48 10h1v1h-1zM50 10h7v1h-7zM12 11h1v1h-1zM14 11h3v1h-3zM22 11h1v1h-1zM25 11h1v1h-1zM27 11h2v1h-2zM32 11h1v1h-1zM38 11h6v1h-6zM45 11h3v1h-3zM4 12h2v1h-2zM7 12h2v1h-2zM10 12h1v1h-1zM13 12h2v1h-2zM16 12h1v1h-1zM20 12h1v1h-1zM23 12h10v1h-10zM34 12h2v1h-2zM37 12h1v1h-1zM40 12h5v1h-5zM46 12h1v1h-1zM48 12h1v1h-1zM50 12h1v1h-1zM56 12h1v1h-1zM8 13h2v1h-2zM14 13h1v1h-1zM16 13h1v1h-1zM20 13h3v1h-3zM24 13h1v1h-1zM34 13h1v1h-1zM37 13h2v1h-2zM40 13h1v1h-1zM42 13h1v1h-1zM45 13h2v1h-2zM48 13h1v1h-1zM52 13h1v1h-1zM54 13h1v1h-1zM4 14h1v1h-1zM7 14h1v1h-1zM9 14h2v1h-2zM12 14h3v1h-3zM16 14h5v1h-5zM22 14h3v1h-3zM27 14h1v1h-1zM30 14h2v1h-2zM33 14h2v1h-2zM36 14h7v1h-7zM46 14h1v1h-1zM49 14h7v1h-7zM5 15h2v1h-2zM8 15h2v1h-2zM11 15h1v1h-1zM13 15h2v1h-2zM20 15h1v1h-1zM22 15h2v1h-2zM25 15h1v1h-1zM27 15h6v1h-6zM34 15h1v1h-1zM36 15h1v1h-1zM39 15h2v1h-2zM44 15h6v1h-6zM51 15h3v1h-3zM56 15h1v1h-1zM4 16h1v1h-1zM8 16h4v1h-4zM13 16h1v1h-1zM15 16h1v1h-1zM18 16h1v1h-1zM21 16h1v1h-1zM24 16h1v1h-1zM26 16h1v1h-1zM28 16h4v1h-4zM33 16h4v1h-4zM38 16h1v1h-1zM40 16h1v1h-1zM42 16h1v1h-1zM44 16h1v1h-1zM48 16h7v1h-7zM56 16h1v1h-1zM4 17h1v1h-1zM6 17h2v1h-2zM9 17h1v1h-1zM11 17h3v1h-3zM17 17h1v1h-1zM22 17h1v1h-1zM24 17h1v1h-1zM26 17h1v1h-1zM30 17h1v1h-1zM32 17h1v1h-1zM36 17h1v1h-1zM42 17h2v1h-2zM46 17h6v1h-6zM53 17h2v1h-2zM56 17h1v1h-1zM4 18h1v1h-1zM6 18h6v1h-6zM15 18h1v1h-1zM19 18h1v1h-1zM21 18h2v1h-2zM26 18h1v1h-1zM28 18h2v1h-2zM32 18h1v1h-1zM35 18h3v1h-3zM41 18h1v1h-1zM44 18h1v1h-1zM46 18h1v1h-1zM48 18h2v1h-2zM51 18h2v1h-2zM56 18h1v1h-1zM6 19h2v1h-2zM12 19h1v1h-1zM14 19h1v1h-1zM16 19h3v1h-3zM22 19h1v1h-1zM24 19h1v1h-1zM26 19h1v1h-1zM28 19h1v1h-1zM31 19h1v1h-1zM36 19h1v1h-1zM39 19h1v1h-1zM43 19h1v1h-1zM45 19h2v1h-2zM49 19h2v1h-2zM53 19h2v1h-2zM5 20h1v1h-1zM8 20h1v1h-1zM10 20h1v1h-1zM12 20h1v1h-1zM14 20h3v1h-3zM18 20h4v1h-4zM25 20h2v1h-2zM28 20h1v1h-1zM31 20h4v1h-4zM39 20h1v1h-1zM42 20h1v1h-1zM44 20h2v1h-2zM47 20h3v1h-3zM52 20h1v1h-1zM54 20h3v1h-3zM4 21h1v1h-1zM6 21h2v1h-2zM14 21h2v1h-2zM19 21h2v1h-2zM22 21h1v1h-1zM30 21h1v1h-1zM35 21h5v1h-5zM42 21h1v1h-1zM44 21h1v1h-1zM46 21h1v1h-1zM48 21h1v1h-1zM52 21h1v1h-1zM54 21h3v1h-3zM4 22h3v1h-3zM8 22h1v1h-1zM10 22h3v1h-3zM14 22h1v1h-1zM18 22h1v1h-1zM22 22h1v1h-1zM24 22h2v1h-2zM27 22h3v1h-3zM31 22h2v1h-2zM34 22h2v1h-2zM37 22h3v1h-3zM41 22h2v1h-2zM49 22h1v1h-1zM51 22h1v1h-1zM54 22h1v1h-1zM56 22h1v1h-1zM11 23h1v1h-1zM15 23h2v1h-2zM18 23h1v1h-1zM20 23h1v1h-1zM23 23h1v1h-1zM25 23h7v1h-7zM33 23h5v1h-5zM40 23h6v1h-6zM48 23h8v1h-8zM7 24h1v1h-1zM10 24h1v1h-1zM12 24h3v1h-3zM17 24h4v1h-4zM23 24h3v1h-3zM27 24h2v1h-2zM30 24h2v1h-2zM34 24h1v1h-1zM38 24h3v1h-3zM42 24h5v1h-5zM48 24h1v1h-1zM50 24h3v1h-3zM54 24h1v1h-1zM4 25h1v1h-1zM6 25h2v1h-2zM9 25h1v1h-1zM12 25h1v1h-1zM15 25h2v1h-2zM18 25h1v1h-1zM20 25h2v1h-2zM23 25h1v1h-1zM25 25h1v1h-1zM29 25h4v1h-4zM35 25h2v1h-2zM38 25h1v1h-1zM45 25h1v1h-1zM47 25h2v1h-2zM51 25h1v1h-1zM53 25h2v1h-2zM56 25h1v1h-1zM5 26h4v1h-4zM10 26h2v1h-2zM13 26h1v1h-1zM15 26h1v1h-1zM17 26h1v1h-1zM19 26h1v1h-1zM21 26h2v1h-2zM28 26h1v1h-1zM30 26h1v1h-1zM34 26h1v1h-1zM37 26h4v1h-4zM43 26h1v1h-1zM45 26h1v1h-1zM47 26h1v1h-1zM49 26h3v1h-3zM53 26h3v1h-3zM4 27h1v1h-1zM6 27h3v1h-3zM14 27h2v1h-2zM18 27h4v1h-4zM26 27h3v1h-3zM30 27h2v1h-2zM34 27h2v1h-2zM37 27h3v1h-3zM42 27h5v1h-5zM48 27h1v1h-1zM52 27h2v1h-2zM55 27h1v1h-1zM4 28h1v1h-1zM6 28h8v1h-8zM19 28h1v1h-1zM21 28h1v1h-1zM23 28h1v1h-1zM25 28h1v1h-1zM27 28h6v1h-6zM34 28h1v1h-1zM37 28h1v1h-1zM40 28h1v1h-1zM42 28h3v1h-3zM47 28h7v1h-7zM56 28h1v1h-1zM8 29h1v1h-1zM12 29h2v1h-2zM17 29h3v1h-3zM21 29h5v1h-5zM28 29h1v1h-1zM32 29h1v1h-1zM35 29h1v1h-1zM38 29h1v1h-1zM40 29h1v1h-1zM44 29h2v1h-2zM48 29h1v1h-1zM52 29h1v1h-1zM54 29h1v1h-1zM56 29h1v1h-1zM4 30h3v1h-3zM8 30h1v1h-1zM10 30h1v1h-1zM12 30h1v1h-1zM14 30h9v1h-9zM25 30h1v1h-1zM28 30h1v1h-1zM30 30h1v1h-1zM32 30h2v1h-2zM36 30h2v1h-2zM39 30h3v1h-3zM43 30h4v1h-4zM48 30h1v1h-1zM50 30h1v1h-1zM52 30h1v1h-1zM54 30h2v1h-2zM4 31h2v1h-2zM8 31h1v1h-1zM12 31h3v1h-3zM18 31h3v1h-3zM25 31h4v1h-4zM32 31h3v1h-3zM36 31h5v1h-5zM44 31h1v1h-1zM47 31h2v1h-2zM52 31h4v1h-4zM6 32h7v1h-7zM15 32h2v1h-2zM20 32h1v1h-1zM27 32h11v1h-11zM40 32h1v1h-1zM42 32h2v1h-2zM46 32h1v1h-1zM48 32h5v1h-5zM54 32h1v1h-1zM56 32h1v1h-1zM6 33h2v1h-2zM12 33h3v1h-3zM17 33h5v1h-5zM23 33h1v1h-1zM25 33h3v1h-3zM29 33h1v1h-1zM33 33h1v1h-1zM36 33h1v1h-1zM39 33h1v1h-1zM41 33h2v1h-2zM45 33h1v1h-1zM55 33h2v1h-2zM5 34h1v1h-1zM8 34h1v1h-1zM10 34h5v1h-5zM17 34h2v1h-2zM21 34h3v1h-3zM26 34h3v1h-3zM30 34h3v1h-3zM34 34h2v1h-2zM37 34h1v1h-1zM39 34h3v1h-3zM44 34h1v1h-1zM49 34h5v1h-5zM56 34h1v1h-1zM4 35h1v1h-1zM7 35h1v1h-1zM18 35h1v1h-1zM20 35h1v1h-1zM23 35h1v1h-1zM27 35h2v1h-2zM30 35h2v1h-2zM35 35h4v1h-4zM40 35h1v1h-1zM43 35h1v1h-1zM45 35h1v1h-1zM47 35h1v1h-1zM50 35h2v1h-2zM55 35h1v1h-1zM5 36h3v1h-3zM10 36h1v1h-1zM12 36h1v1h-1zM16 36h2v1h-2zM19 36h1v1h-1zM21 36h3v1h-3zM25 36h1v1h-1zM27 36h4v1h-4zM32 36h3v1h-3zM36 36h1v1h-1zM38 36h2v1h-2zM42 36h2v1h-2zM45 36h1v1h-1zM47 36h4v1h-4zM53 36h2v1h-2zM4 37h4v1h-4zM9 37h1v1h-1zM11 37h1v1h-1zM15 37h1v1h-1zM17 37h2v1h-2zM20 37h8v1h-8zM30 37h1v1h-1zM36 37h1v1h-1zM39 37h2v1h-2zM50 37h7v1h-7zM5 38h4v1h-4zM10 38h1v1h-1zM12 38h1v1h-1zM17 38h2v1h-2zM22 38h5v1h-5zM28 38h3v1h-3zM37 38h3v1h-3zM42 38h1v1h-1zM44 38h1v1h-1zM47 38h4v1h-4zM55 38h1v1h-1zM4 39h2v1h-2zM7 39h3v1h-3zM11 39h2v1h-2zM16 39h3v1h-3zM21 39h1v1h-1zM24 39h4v1h-4zM33 39h2v1h-2zM37 39h2v1h-2zM40 39h2v1h-2zM43 39h2v1h-2zM46 39h2v1h-2zM51 39h1v1h-1zM53 39h1v1h-1zM4 40h1v1h-1zM7 40h1v1h-1zM9 40h4v1h-4zM17 40h1v1h-1zM24 40h2v1h-2zM27 40h3v1h-3zM31 40h3v1h-3zM36 40h4v1h-4zM41 40h2v1h-2zM44 40h2v1h-2zM47 40h1v1h-1zM49 40h5v1h-5zM56 40h1v1h-1zM4 41h1v1h-1zM6 41h2v1h-2zM13 41h4v1h-4zM18 41h1v1h-1zM21 41h6v1h-6zM30 41h2v1h-2zM35 41h1v1h-1zM38 41h1v1h-1zM43 41h1v1h-1zM46 41h1v1h-1zM51 41h3v1h-3zM55 41h1v1h-1zM5 42h1v1h-1zM7 42h2v1h-2zM10 42h3v1h-3zM16 42h1v1h-1zM18 42h1v1h-1zM22 42h5v1h-5zM28 42h1v1h-1zM30 42h6v1h-6zM38 42h1v1h-1zM40 42h1v1h-1zM45 42h1v1h-1zM50 42h1v1h-1zM53 42h2v1h-2zM4 43h1v1h-1zM6 43h1v1h-1zM8 43h2v1h-2zM12 43h1v1h-1zM15 43h2v1h-2zM23 43h1v1h-1zM27 43h6v1h-6zM37 43h1v1h-1zM39 43h1v1h-1zM42 43h3v1h-3zM46 43h1v1h-1zM48 43h3v1h-3zM54 43h1v1h-1zM4 44h1v1h-1zM7 44h1v1h-1zM9 44h3v1h-3zM14 44h4v1h-4zM19 44h2v1h-2zM22 44h1v1h-1zM24 44h5v1h-5zM30 44h3v1h-3zM34 44h2v1h-2zM39 44h1v1h-1zM42 44h2v1h-2zM45 44h1v1h-1zM47 44h3v1h-3zM52 44h1v1h-1zM55 44h1v1h-1zM7 45h3v1h-3zM12 45h2v1h-2zM16 45h1v1h-1zM20 45h4v1h-4zM25 45h2v1h-2zM29 45h2v1h-2zM33 45h1v1h-1zM36 45h1v1h-1zM39 45h1v1h-1zM45 45h3v1h-3zM49 45h1v1h-1zM53 45h4v1h-4zM4 46h2v1h-2zM7 46h4v1h-4zM13 46h2v1h-2zM17 46h1v1h-1zM20 46h2v1h-2zM23 46h1v1h-1zM25 46h1v1h-1zM29 46h3v1h-3zM36 46h2v1h-2zM39 46h1v1h-1zM41 46h3v1h-3zM47 46h2v1h-2zM50 46h1v1h-1zM52 46h2v1h-2zM56 46h1v1h-1zM5 47h2v1h-2zM11 47h1v1h-1zM14 47h1v1h-1zM16 47h1v1h-1zM18 47h1v1h-1zM20 47h1v1h-1zM22 47h2v1h-2zM25 47h1v1h-1zM29 47h1v1h-1zM32 47h1v1h-1zM34 47h1v1h-1zM36 47h2v1h-2zM39 47h2v1h-2zM42 47h1v1h-1zM46 47h2v1h-2zM49 47h1v1h-1zM55 47h1v1h-1zM7 48h1v1h-1zM10 48h1v1h-1zM15 48h1v1h-1zM18 48h1v1h-1zM20 48h2v1h-2zM23 48h1v1h-1zM25 48h1v1h-1zM28 48h5v1h-5zM37 48h2v1h-2zM41 48h3v1h-3zM45 48h8v1h-8zM56 48h1v1h-1zM12 49h1v1h-1zM14 49h7v1h-7zM23 49h1v1h-1zM26 49h3v1h-3zM32 49h3v1h-3zM40 49h1v1h-1zM44 49h1v1h-1zM48 49h1v1h-1zM52 49h2v1h-2zM55 49h2v1h-2zM4 50h7v1h-7zM14 50h1v1h-1zM20 50h2v1h-2zM24 50h2v1h-2zM27 50h2v1h-2zM30 50h1v1h-1zM32 50h1v1h-1zM34 50h1v1h-1zM36 50h1v1h-1zM40 50h1v1h-1zM43 50h1v1h-1zM46 50h3v1h-3zM50 50h1v1h-1zM52 50h1v1h-1zM54 50h3v1h-3zM4 51h1v1h-1zM10 51h1v1h-1zM13 51h3v1h-3zM17 51h1v1h-1zM21 51h1v1h-1zM28 51h1v1h-1zM32 51h1v1h-1zM34 51h1v1h-1zM36 51h1v1h-1zM38 51h1v1h-1zM40 51h3v1h-3zM44 51h1v1h-1zM47 51h2v1h-2zM52 51h4v1h-4zM4 52h1v1h-1zM6 52h3v1h-3zM10 52h1v1h-1zM12 52h2v1h-2zM17 52h1v1h-1zM19 52h2v1h-2zM22 52h3v1h-3zM26 52h8v1h-8zM35 52h7v1h-7zM44 52h2v1h-2zM47 52h7v1h-7zM56 52h1v1h-1zM4 53h1v1h-1zM6 53h3v1h-3zM10 53h1v1h-1zM12 53h1v1h-1zM14 53h3v1h-3zM18 53h2v1h-2zM22 53h1v1h-1zM24 53h2v1h-2zM29 53h1v1h-1zM33 53h1v1h-1zM35 53h2v1h-2zM38 53h3v1h-3zM42 53h2v1h-2zM45 53h2v1h-2zM48 53h2v1h-2zM51 53h4v1h-4zM56 53h1v1h-1zM4 54h1v1h-1zM6 54h3v1h-3zM10 54h1v1h-1zM13 54h3v1h-3zM17 54h2v1h-2zM20 54h5v1h-5zM26 54h1v1h-1zM28 54h1v1h-1zM31 54h1v1h-1zM40 54h1v1h-1zM43 54h2v1h-2zM48 54h2v1h-2zM52 54h2v1h-2zM55 54h1v1h-1zM4 55h1v1h-1zM10 55h1v1h-1zM12 55h2v1h-2zM15 55h4v1h-4zM24 55h1v1h-1zM28 55h3v1h-3zM32 55h1v1h-1zM34 55h3v1h-3zM38 55h6v1h-6zM45 55h2v1h-2zM48 55h1v1h-1zM50 55h1v1h-1zM4 56h7v1h-7zM12 56h1v1h-1zM15 56h1v1h-1zM18 56h1v1h-1zM26 56h1v1h-1zM33 56h1v1h-1zM37 56h4v1h-4zM45 56h1v1h-1zM47 56h2v1h-2zM51 56h1v1h-1zM53 56h3v1h-3z" fill="#000"/></svg>