<svg width="169" height="44" viewBox="0 0 169 44" fill="none" xmlns="http://www.w3.org/2000/svg">
<g id="Group 34">
<g id="Copy">
<g id="Group">
<path id="Vector" d="M37.0638 12.0859H41.0859C44.5142 12.0859 46.4879 14.0959 46.4879 16.8799C46.4879 20.5359 43.3465 21.4799 42.1788 21.6019L46.94 29.0359H45.4401L40.7753 21.6739H38.3003V29.0359H37.0619V12.0859H37.0638ZM41.1586 20.4639C43.6571 20.4639 45.2042 19.1079 45.2042 16.8799C45.2042 14.6519 43.6335 13.2959 41.1586 13.2959H38.3023V20.4639H41.1586Z" fill="#E6E6E6"/>
<path id="Vector_2" d="M51.0839 19.7619H58.5106V20.9239H51.0839V27.8739H59.2242V29.0359H49.8474V12.0859H59.0827V13.2479H51.0858V19.7619H51.0839Z" fill="#E6E6E6"/>
<path id="Vector_3" d="M66.9832 20.9739C64.5319 19.8839 62.5091 18.5759 62.5091 16.0099C62.5091 14.0959 64.0326 11.7959 67.1503 11.7959C70.2681 11.7959 71.6716 14.2419 71.6716 14.2419L70.7202 14.9919C70.7202 14.9919 69.5309 13.0299 67.1739 13.0299C65.0784 13.0299 63.7456 14.3139 63.7456 16.0079C63.7456 18.0899 65.6268 19.0099 68.0054 20.0759C70.5531 21.2139 71.9803 22.5219 71.9803 24.7979C71.9803 27.5339 69.7904 29.3259 67.0068 29.3259C63.3406 29.3259 61.8427 25.8639 61.8427 25.8639L62.9612 25.1859C62.9612 25.1859 64.0561 28.0919 67.0068 28.0919C69.0768 28.0919 70.7438 26.8319 70.7438 24.7979C70.7438 22.7639 68.9352 21.8439 66.9832 20.9719V20.9739Z" fill="#E6E6E6"/>
<path id="Vector_4" d="M74.3628 20.5619C74.3628 15.6699 77.8619 11.7959 82.5975 11.7959C87.3331 11.7959 90.8322 15.6699 90.8322 20.5619C90.8322 25.4539 87.3567 29.3279 82.5975 29.3279C77.8383 29.3279 74.3628 25.4539 74.3628 20.5619ZM75.6484 20.5619C75.6484 24.7279 78.434 28.0939 82.5995 28.0939C86.765 28.0939 89.5486 24.7279 89.5486 20.5619C89.5486 16.3959 86.763 13.0299 82.5995 13.0299C78.4359 13.0299 75.6484 16.3959 75.6484 20.5619Z" fill="#E6E6E6"/>
<path id="Vector_5" d="M95.214 12.0859L105.448 26.8579V12.0859H106.686V29.0359H105.448L95.214 14.2159V29.0359H93.9755V12.0859H95.214Z" fill="#E6E6E6"/>
<path id="Vector_6" d="M115.707 12.0859H117.087L123.728 29.0359H122.395L120.49 24.0959H112.303L110.398 29.0359H109.065L115.705 12.0859H115.707ZM112.778 22.9339H120.014L116.397 13.4899L112.78 22.9339H112.778Z" fill="#E6E6E6"/>
<path id="Vector_7" d="M127.347 12.0859L137.581 26.8579V12.0859H138.819V29.0359H137.581L127.347 14.2159V29.0359H126.108V12.0859H127.347Z" fill="#E6E6E6"/>
<path id="Vector_8" d="M155.503 25.6459L156.36 26.5179C154.907 28.2379 152.717 29.3259 150.195 29.3259C145.387 29.3259 141.961 25.4519 141.961 20.5599C141.961 15.6679 145.389 11.7939 150.195 11.7939C152.623 11.7939 154.669 12.7859 156.122 14.3859L155.241 15.2099C154.027 13.8539 152.267 13.0299 150.195 13.0299C146.053 13.0299 143.244 16.3959 143.244 20.5619C143.244 24.7279 146.053 28.0939 150.195 28.0939C152.409 28.0939 154.314 27.1019 155.503 25.6479V25.6459Z" fill="#E6E6E6"/>
<path id="Vector_9" d="M160.264 19.7619H167.691V20.9239H160.264V27.8739H168.404V29.0359H159.028V12.0859H168.263V13.2479H160.266V19.7619H160.264Z" fill="#E6E6E6"/>
</g>
</g>
<g id="Layer 6">
<g id="Vector_10" filter="url(#filter0_d_30_266)">
<path d="M13.0478 29.142L2 17.762V12.19L13.0478 1.02405L24.1171 12.19V17.762L13.0478 29.142Z" fill="url(#paint0_linear_30_266)"/>
</g>
<g id="Vector_11" filter="url(#filter1_d_30_266)">
<path d="M13.0478 23.542L2 12.19L13.0478 1.02405L24.1171 12.19L13.0478 23.542Z" fill="url(#paint1_linear_30_266)"/>
</g>
<g id="Vector_12" filter="url(#filter2_d_30_266)">
<path d="M13.0478 17.586L4.91527 9.23201L13.0478 1.03601L21.1802 9.23201L13.0478 17.586Z" fill="url(#paint2_linear_30_266)"/>
</g>
<g id="Vector_13" filter="url(#filter3_d_30_266)">
<path d="M13.0812 9.76L8.7584 5.322L13.0478 1L17.3686 5.354L13.0812 9.76Z" fill="url(#paint3_linear_30_266)"/>
</g>
<g id="Vector_14" filter="url(#filter4_d_30_266)">
<path d="M13.0812 40.452L2 29.102L13.0812 17.936L24.1171 29.102L13.0812 40.452Z" fill="url(#paint4_linear_30_266)"/>
</g>
<g id="Vector_15" filter="url(#filter5_d_30_266)">
<path d="M13.0143 34.758L21.3316 26.228L13.1126 17.936L4.79732 26.328L13.0143 34.758Z" fill="url(#paint5_linear_30_266)"/>
</g>
<g id="Vector_16" filter="url(#filter6_d_30_266)">
<path d="M13.032 29.11L18.5559 23.444L13.0969 17.936L7.57106 23.51L13.032 29.11Z" fill="url(#paint6_linear_30_266)"/>
</g>
<g id="Vector_17" filter="url(#filter7_d_30_266)">
<path d="M2 29.102L7.57106 23.51L2 17.762V29.102Z" fill="url(#paint7_linear_30_266)"/>
</g>
<g id="Vector_18" filter="url(#filter8_d_30_266)">
<path d="M24.1171 29.102L18.5166 23.444L24.1171 17.762V29.102Z" fill="url(#paint8_linear_30_266)"/>
</g>
<g id="Vector_19" filter="url(#filter9_d_30_266)">
<path d="M13.0478 23.542L15.8195 20.698L13.0812 17.936L10.3094 20.732L13.0478 23.542Z" fill="url(#paint9_linear_30_266)"/>
</g>
</g>
</g>
<defs>
<filter id="filter0_d_30_266" x="0" y="0.0240479" width="26.1171" height="32.118" filterUnits="userSpaceOnUse" color-interpolation-filters="sRGB">
<feFlood flood-opacity="0" result="BackgroundImageFix"/>
<feColorMatrix in="SourceAlpha" type="matrix" values="0 0 0 0 0 0 0 0 0 0 0 0 0 0 0 0 0 0 127 0" result="hardAlpha"/>
<feOffset dy="1"/>
<feGaussianBlur stdDeviation="1"/>
<feColorMatrix type="matrix" values="0 0 0 0 0 0 0 0 0 0 0 0 0 0 0 0 0 0 0.15 0"/>
<feBlend mode="normal" in2="BackgroundImageFix" result="effect1_dropShadow_30_266"/>
<feBlend mode="normal" in="SourceGraphic" in2="effect1_dropShadow_30_266" result="shape"/>
</filter>
<filter id="filter1_d_30_266" x="0" y="0.0240479" width="26.1171" height="26.5179" filterUnits="userSpaceOnUse" color-interpolation-filters="sRGB">
<feFlood flood-opacity="0" result="BackgroundImageFix"/>
<feColorMatrix in="SourceAlpha" type="matrix" values="0 0 0 0 0 0 0 0 0 0 0 0 0 0 0 0 0 0 127 0" result="hardAlpha"/>
<feOffset dy="1"/>
<feGaussianBlur stdDeviation="1"/>
<feColorMatrix type="matrix" values="0 0 0 0 0 0 0 0 0 0 0 0 0 0 0 0 0 0 0.15 0"/>
<feBlend mode="normal" in2="BackgroundImageFix" result="effect1_dropShadow_30_266"/>
<feBlend mode="normal" in="SourceGraphic" in2="effect1_dropShadow_30_266" result="shape"/>
</filter>
<filter id="filter2_d_30_266" x="2.91527" y="0.0360107" width="20.265" height="20.55" filterUnits="userSpaceOnUse" color-interpolation-filters="sRGB">
<feFlood flood-opacity="0" result="BackgroundImageFix"/>
<feColorMatrix in="SourceAlpha" type="matrix" values="0 0 0 0 0 0 0 0 0 0 0 0 0 0 0 0 0 0 127 0" result="hardAlpha"/>
<feOffset dy="1"/>
<feGaussianBlur stdDeviation="1"/>
<feColorMatrix type="matrix" values="0 0 0 0 0 0 0 0 0 0 0 0 0 0 0 0 0 0 0.15 0"/>
<feBlend mode="normal" in2="BackgroundImageFix" result="effect1_dropShadow_30_266"/>
<feBlend mode="normal" in="SourceGraphic" in2="effect1_dropShadow_30_266" result="shape"/>
</filter>
<filter id="filter3_d_30_266" x="6.7584" y="0" width="12.6102" height="12.76" filterUnits="userSpaceOnUse" color-interpolation-filters="sRGB">
<feFlood flood-opacity="0" result="BackgroundImageFix"/>
<feColorMatrix in="SourceAlpha" type="matrix" values="0 0 0 0 0 0 0 0 0 0 0 0 0 0 0 0 0 0 127 0" result="hardAlpha"/>
<feOffset dy="1"/>
<feGaussianBlur stdDeviation="1"/>
<feColorMatrix type="matrix" values="0 0 0 0 0 0 0 0 0 0 0 0 0 0 0 0 0 0 0.15 0"/>
<feBlend mode="normal" in2="BackgroundImageFix" result="effect1_dropShadow_30_266"/>
<feBlend mode="normal" in="SourceGraphic" in2="effect1_dropShadow_30_266" result="shape"/>
</filter>
<filter id="filter4_d_30_266" x="0" y="16.936" width="26.1171" height="26.516" filterUnits="userSpaceOnUse" color-interpolation-filters="sRGB">
<feFlood flood-opacity="0" result="BackgroundImageFix"/>
<feColorMatrix in="SourceAlpha" type="matrix" values="0 0 0 0 0 0 0 0 0 0 0 0 0 0 0 0 0 0 127 0" result="hardAlpha"/>
<feOffset dy="1"/>
<feGaussianBlur stdDeviation="1"/>
<feColorMatrix type="matrix" values="0 0 0 0 0 0 0 0 0 0 0 0 0 0 0 0 0 0 0.15 0"/>
<feBlend mode="normal" in2="BackgroundImageFix" result="effect1_dropShadow_30_266"/>
<feBlend mode="normal" in="SourceGraphic" in2="effect1_dropShadow_30_266" result="shape"/>
</filter>
<filter id="filter5_d_30_266" x="2.79732" y="16.936" width="20.5343" height="20.822" filterUnits="userSpaceOnUse" color-interpolation-filters="sRGB">
<feFlood flood-opacity="0" result="BackgroundImageFix"/>
<feColorMatrix in="SourceAlpha" type="matrix" values="0 0 0 0 0 0 0 0 0 0 0 0 0 0 0 0 0 0 127 0" result="hardAlpha"/>
<feOffset dy="1"/>
<feGaussianBlur stdDeviation="1"/>
<feColorMatrix type="matrix" values="0 0 0 0 0 0 0 0 0 0 0 0 0 0 0 0 0 0 0.15 0"/>
<feBlend mode="normal" in2="BackgroundImageFix" result="effect1_dropShadow_30_266"/>
<feBlend mode="normal" in="SourceGraphic" in2="effect1_dropShadow_30_266" result="shape"/>
</filter>
<filter id="filter6_d_30_266" x="5.57106" y="16.936" width="14.9848" height="15.174" filterUnits="userSpaceOnUse" color-interpolation-filters="sRGB">
<feFlood flood-opacity="0" result="BackgroundImageFix"/>
<feColorMatrix in="SourceAlpha" type="matrix" values="0 0 0 0 0 0 0 0 0 0 0 0 0 0 0 0 0 0 127 0" result="hardAlpha"/>
<feOffset dy="1"/>
<feGaussianBlur stdDeviation="1"/>
<feColorMatrix type="matrix" values="0 0 0 0 0 0 0 0 0 0 0 0 0 0 0 0 0 0 0.15 0"/>
<feBlend mode="normal" in2="BackgroundImageFix" result="effect1_dropShadow_30_266"/>
<feBlend mode="normal" in="SourceGraphic" in2="effect1_dropShadow_30_266" result="shape"/>
</filter>
<filter id="filter7_d_30_266" x="0" y="16.762" width="9.57106" height="15.34" filterUnits="userSpaceOnUse" color-interpolation-filters="sRGB">
<feFlood flood-opacity="0" result="BackgroundImageFix"/>
<feColorMatrix in="SourceAlpha" type="matrix" values="0 0 0 0 0 0 0 0 0 0 0 0 0 0 0 0 0 0 127 0" result="hardAlpha"/>
<feOffset dy="1"/>
<feGaussianBlur stdDeviation="1"/>
<feColorMatrix type="matrix" values="0 0 0 0 0 0 0 0 0 0 0 0 0 0 0 0 0 0 0.15 0"/>
<feBlend mode="normal" in2="BackgroundImageFix" result="effect1_dropShadow_30_266"/>
<feBlend mode="normal" in="SourceGraphic" in2="effect1_dropShadow_30_266" result="shape"/>
</filter>
<filter id="filter8_d_30_266" x="16.5166" y="16.762" width="9.60054" height="15.34" filterUnits="userSpaceOnUse" color-interpolation-filters="sRGB">
<feFlood flood-opacity="0" result="BackgroundImageFix"/>
<feColorMatrix in="SourceAlpha" type="matrix" values="0 0 0 0 0 0 0 0 0 0 0 0 0 0 0 0 0 0 127 0" result="hardAlpha"/>
<feOffset dy="1"/>
<feGaussianBlur stdDeviation="1"/>
<feColorMatrix type="matrix" values="0 0 0 0 0 0 0 0 0 0 0 0 0 0 0 0 0 0 0.15 0"/>
<feBlend mode="normal" in2="BackgroundImageFix" result="effect1_dropShadow_30_266"/>
<feBlend mode="normal" in="SourceGraphic" in2="effect1_dropShadow_30_266" result="shape"/>
</filter>
<filter id="filter9_d_30_266" x="8.30941" y="16.936" width="9.51012" height="9.60596" filterUnits="userSpaceOnUse" color-interpolation-filters="sRGB">
<feFlood flood-opacity="0" result="BackgroundImageFix"/>
<feColorMatrix in="SourceAlpha" type="matrix" values="0 0 0 0 0 0 0 0 0 0 0 0 0 0 0 0 0 0 127 0" result="hardAlpha"/>
<feOffset dy="1"/>
<feGaussianBlur stdDeviation="1"/>
<feColorMatrix type="matrix" values="0 0 0 0 0 0 0 0 0 0 0 0 0 0 0 0 0 0 0.15 0"/>
<feBlend mode="normal" in2="BackgroundImageFix" result="effect1_dropShadow_30_266"/>
<feBlend mode="normal" in="SourceGraphic" in2="effect1_dropShadow_30_266" result="shape"/>
</filter>
<linearGradient id="paint0_linear_30_266" x1="10.0543" y1="0.903668" x2="10.5345" y2="29.0192" gradientUnits="userSpaceOnUse">
<stop offset="0.35" stop-color="#90B325"/>
<stop offset="0.64" stop-color="#44E66B"/>
<stop offset="1" stop-color="#1FEDA9"/>
</linearGradient>
<linearGradient id="paint1_linear_30_266" x1="10.0543" y1="0.903668" x2="10.4394" y2="23.4198" gradientUnits="userSpaceOnUse">
<stop stop-color="#FA35AF"/>
<stop offset="0.32" stop-color="#F97F56"/>
<stop offset="0.57" stop-color="#FAC534"/>
<stop offset="0.89" stop-color="#ADFA83"/>
</linearGradient>
<linearGradient id="paint2_linear_30_266" x1="10.0445" y1="0.917561" x2="10.3258" y2="17.4643" gradientUnits="userSpaceOnUse">
<stop offset="0.15" stop-color="#FA35AF"/>
<stop offset="0.55" stop-color="#FF4283"/>
<stop offset="0.89" stop-color="#FFA544"/>
</linearGradient>
<linearGradient id="paint3_linear_30_266" x1="15.0585" y1="1.36303" x2="15.2044" y2="10.1237" gradientUnits="userSpaceOnUse">
<stop offset="0.15" stop-color="#FF1D25"/>
<stop offset="0.72" stop-color="#FE4088"/>
</linearGradient>
<linearGradient id="paint4_linear_30_266" x1="10.0951" y1="17.8188" x2="10.4782" y2="40.3369" gradientUnits="userSpaceOnUse">
<stop offset="0.38" stop-color="#008ED5"/>
<stop offset="0.59" stop-color="#645ED8"/>
<stop offset="0.89" stop-color="#C05CD7"/>
</linearGradient>
<linearGradient id="paint5_linear_30_266" x1="13.0635" y1="17.936" x2="13.0635" y2="34.758" gradientUnits="userSpaceOnUse">
<stop stop-color="#0AD4F6"/>
<stop offset="1" stop-color="#5665D8"/>
</linearGradient>
<linearGradient id="paint6_linear_30_266" x1="13.0635" y1="17.936" x2="13.0635" y2="29.11" gradientUnits="userSpaceOnUse">
<stop offset="0.38" stop-color="#0BB9B0"/>
<stop offset="0.59" stop-color="#02BFBF"/>
<stop offset="0.89" stop-color="#0AD4F6"/>
</linearGradient>
<linearGradient id="paint7_linear_30_266" x1="4.78553" y1="17.762" x2="4.78553" y2="29.102" gradientUnits="userSpaceOnUse">
<stop offset="0.38" stop-color="#0BB9B0"/>
<stop offset="0.59" stop-color="#02BFBF"/>
<stop offset="0.89" stop-color="#0AD4F6"/>
</linearGradient>
<linearGradient id="paint8_linear_30_266" x1="21.3159" y1="17.762" x2="21.3159" y2="29.102" gradientUnits="userSpaceOnUse">
<stop offset="0.38" stop-color="#0BB9B0"/>
<stop offset="0.59" stop-color="#02BFBF"/>
<stop offset="0.89" stop-color="#0AD4F6"/>
</linearGradient>
<linearGradient id="paint9_linear_30_266" x1="13.0635" y1="17.936" x2="13.0635" y2="23.542" gradientUnits="userSpaceOnUse">
<stop offset="0.38" stop-color="#8AF9A8"/>
<stop offset="0.59" stop-color="#5FE49E"/>
<stop offset="0.89" stop-color="#0CE6ED"/>
</linearGradient>
</defs>
</svg>
