<svg width="17" height="17" viewBox="0 0 17 17" fill="none" xmlns="http://www.w3.org/2000/svg">
<path d="M6.88428 0.0562541C7.48877 -0.0225017 8.98791 -0.0112508 9.61658 0.0450033C10.1364 0.0900066 10.7168 0.427531 10.9344 0.877564C10.9948 1.00132 11.0311 1.31635 11.1278 1.3501C11.8653 1.42886 12.7962 1.23759 13.4853 1.44011C14.1019 1.62012 14.525 2.14891 14.5976 2.7452V6.53673C14.6339 6.62674 14.9965 6.67174 15.1416 6.73925C15.6131 6.96426 15.9154 7.47055 16 7.95434V15.6612C15.8791 16.3812 15.2867 16.91 14.513 17H7.63385C7.13817 16.8987 6.61831 16.6287 6.3886 16.2012C6.31606 16.0662 6.2677 15.7287 6.17098 15.6949L3.39033 15.6724C2.61658 15.5486 2.06045 14.9861 2 14.2435V2.77895C2.04836 2.02515 2.67703 1.40635 3.48705 1.33885C3.81347 1.31635 5.38515 1.3951 5.50605 1.31635C5.5544 1.28259 5.62694 0.945069 5.68739 0.832561C5.90501 0.438782 6.41278 0.112508 6.88428 0.0450033V0.0562541ZM7.05354 1.3501C7.05354 1.3501 6.95682 1.4176 6.93264 1.46261C6.88428 1.55261 6.88428 2.45268 6.93264 2.55394C6.93264 2.57644 7.04145 2.66645 7.05354 2.66645H9.55613C9.55613 2.66645 9.66494 2.57644 9.67703 2.55394C9.72539 2.46393 9.72539 1.56386 9.67703 1.46261C9.67703 1.44011 9.56822 1.3501 9.55613 1.3501H7.05354ZM13.2073 6.55923V2.79021C13.2073 2.79021 13.0622 2.64394 13.0017 2.6552H11.1399C11.0432 2.68895 11.0069 3.00397 10.9465 3.12773C10.7288 3.57776 10.1485 3.91529 9.62867 3.96029C8.95164 4.01655 7.74266 4.00529 7.05354 3.96029C6.52159 3.92654 5.94128 3.61152 5.69948 3.16148C5.62694 3.02647 5.57858 2.68895 5.48187 2.6552H3.62003C3.48705 2.6552 3.40242 2.77895 3.41451 2.89146V14.131C3.37824 14.1985 3.52332 14.3673 3.55959 14.3673H6.21934V7.83058C6.21934 7.83058 6.36442 7.4143 6.40069 7.34679C6.52159 7.12177 6.87219 6.80675 7.11399 6.70549C7.17444 6.68299 7.56131 6.55923 7.59758 6.55923H13.2314H13.2073ZM14.6097 7.85308H7.59758V15.6724H14.6097V7.85308Z" fill="#E6E6E6"/>
</svg>
