<svg width="109" height="69" viewBox="0 0 109 69" fill="none" xmlns="http://www.w3.org/2000/svg">
<g clip-path="url(#clip0_163_2379)">
<path d="M17.0308 59.9786C17.0308 62.2702 16.2442 64.3423 14.9393 65.9029L17.4007 68.0737L16.6141 69L14.0795 66.7809C12.6282 68.0495 10.7075 68.8047 8.51842 68.8047C3.54678 68.8047 0.00402832 64.9041 0.00402832 59.9786C0.00402832 55.053 3.54881 51.1524 8.51842 51.1524C13.488 51.1524 17.0328 55.053 17.0328 59.9786H17.0308ZM10.6079 62.0265L13.9799 65.0491C15.0633 63.708 15.7035 61.9278 15.7035 59.9786C15.7035 55.784 12.799 52.3949 8.51638 52.3949C4.23378 52.3949 1.32926 55.784 1.32926 59.9786C1.32926 64.1731 4.23378 67.5622 8.51638 67.5622C10.3376 67.5622 11.9128 66.9521 13.1181 65.9291L9.79486 62.979L10.6079 62.0285V62.0265Z" fill="#E6E6E6"/>
<path d="M31.4762 51.4444H32.7567V62.099C32.7567 66.0741 30.5656 68.8047 26.6285 68.8047C22.6915 68.8047 20.5004 66.0741 20.5004 62.099V51.4444H21.7788V61.9782C21.7788 65.2948 23.2057 67.5622 26.6265 67.5622C30.0473 67.5622 31.4741 65.2948 31.4741 61.9782V51.4444H31.4762Z" fill="#E6E6E6"/>
<path d="M42.0841 51.4444H43.5109L50.3769 68.5107H48.9988L47.0293 63.5368H38.5637L36.5941 68.5107H35.2161L42.082 51.4444H42.0841ZM39.0576 62.3688H46.5394L42.7995 52.8601L39.0596 62.3688H39.0576Z" fill="#E6E6E6"/>
<path d="M54.1189 51.4444L64.7004 66.3177V51.4444H65.9809V68.5107H64.7004L54.1189 53.589V68.5107H52.8384V51.4444H54.1189Z" fill="#E6E6E6"/>
<path d="M73.7331 52.6164H68.5399V51.4464H80.2048V52.6164H75.0116V68.5127H73.7311V52.6164H73.7331Z" fill="#E6E6E6"/>
<path d="M93.7416 51.4444H95.0221V62.099C95.0221 66.0741 92.831 68.8047 88.8939 68.8047C84.9568 68.8047 82.7657 66.0741 82.7657 62.099V51.4444H84.0442V61.9782C84.0442 65.2948 85.4711 67.5622 88.8919 67.5622C92.3127 67.5622 93.7395 65.2948 93.7395 61.9782V51.4444H93.7416Z" fill="#E6E6E6"/>
<path d="M103.831 60.3934C101.297 59.2959 99.2051 57.9789 99.2051 55.3953C99.2051 53.4682 100.78 51.1524 104.004 51.1524C107.228 51.1524 108.681 53.6152 108.681 53.6152L107.697 54.3704C107.697 54.3704 106.467 52.3949 104.03 52.3949C101.866 52.3949 100.486 53.6877 100.486 55.3933C100.486 57.4896 102.431 58.4159 104.89 59.4892C107.524 60.635 109 61.952 109 64.2436C109 66.9984 106.736 68.8027 103.858 68.8027C100.067 68.8027 98.5181 65.3169 98.5181 65.3169L99.6746 64.6343C99.6746 64.6343 100.807 67.5602 103.858 67.5602C105.998 67.5602 107.721 66.2916 107.721 64.2436C107.721 62.1957 105.852 61.2693 103.833 60.3914L103.831 60.3934Z" fill="#E6E6E6"/>
<g filter="url(#filter0_d_163_2379)">
<path d="M54.6352 28.8928L43.2142 17.4368V11.8266L54.6352 0.58197L66.0825 11.8266V17.4368L54.6352 28.8928Z" fill="url(#paint0_linear_163_2379)"/>
</g>
<g filter="url(#filter1_d_163_2379)">
<path d="M54.6352 23.2544L43.2142 11.8266L54.6352 0.58197L66.0825 11.8266L54.6352 23.2544Z" fill="url(#paint1_linear_163_2379)"/>
</g>
<g filter="url(#filter2_d_163_2379)">
<path d="M54.6351 17.2575L46.2264 8.84826L54.6351 0.596054L63.0438 8.84826L54.6351 17.2575Z" fill="url(#paint2_linear_163_2379)"/>
</g>
<g filter="url(#filter3_d_163_2379)">
<path d="M54.6697 9.37989L50.2001 4.90944L54.6351 0.559814L59.1047 4.94368L54.6697 9.37989Z" fill="url(#paint3_linear_163_2379)"/>
</g>
<g filter="url(#filter4_d_163_2379)">
<path d="M54.6697 40.2824L43.2142 28.8545L54.6697 17.61L66.0825 28.8545L54.6697 40.2824Z" fill="url(#paint4_linear_163_2379)"/>
</g>
<g filter="url(#filter5_d_163_2379)">
<path d="M54.6026 34.5473L63.2003 25.9588L54.7042 17.61L46.1045 26.0615L54.6026 34.5473Z" fill="url(#paint5_linear_163_2379)"/>
</g>
<g filter="url(#filter6_d_163_2379)">
<path d="M54.6189 28.8626L60.3304 23.1577L54.686 17.61L48.9745 23.2242L54.6189 28.8626Z" fill="url(#paint6_linear_163_2379)"/>
</g>
<g filter="url(#filter7_d_163_2379)">
<path d="M43.2142 28.8545L48.9745 23.2242L43.2142 17.4368V28.8545Z" fill="url(#paint7_linear_163_2379)"/>
</g>
<g filter="url(#filter8_d_163_2379)">
<path d="M66.0826 28.8545L60.2898 23.1577L66.0826 17.4368V28.8545Z" fill="url(#paint8_linear_163_2379)"/>
</g>
<g filter="url(#filter9_d_163_2379)">
<path d="M54.6352 23.2544L57.5011 20.3929L54.6697 17.61L51.8038 20.4271L54.6352 23.2544Z" fill="url(#paint9_linear_163_2379)"/>
</g>
</g>
<defs>
<filter id="filter0_d_163_2379" x="41.2142" y="-0.41803" width="26.8683" height="32.3108" filterUnits="userSpaceOnUse" color-interpolation-filters="sRGB">
<feFlood flood-opacity="0" result="BackgroundImageFix"/>
<feColorMatrix in="SourceAlpha" type="matrix" values="0 0 0 0 0 0 0 0 0 0 0 0 0 0 0 0 0 0 127 0" result="hardAlpha"/>
<feOffset dy="1"/>
<feGaussianBlur stdDeviation="1"/>
<feColorMatrix type="matrix" values="0 0 0 0 0 0 0 0 0 0 0 0 0 0 0 0 0 0 0.15 0"/>
<feBlend mode="normal" in2="BackgroundImageFix" result="effect1_dropShadow_163_2379"/>
<feBlend mode="normal" in="SourceGraphic" in2="effect1_dropShadow_163_2379" result="shape"/>
</filter>
<filter id="filter1_d_163_2379" x="41.2142" y="-0.41803" width="26.8683" height="26.6724" filterUnits="userSpaceOnUse" color-interpolation-filters="sRGB">
<feFlood flood-opacity="0" result="BackgroundImageFix"/>
<feColorMatrix in="SourceAlpha" type="matrix" values="0 0 0 0 0 0 0 0 0 0 0 0 0 0 0 0 0 0 127 0" result="hardAlpha"/>
<feOffset dy="1"/>
<feGaussianBlur stdDeviation="1"/>
<feColorMatrix type="matrix" values="0 0 0 0 0 0 0 0 0 0 0 0 0 0 0 0 0 0 0.15 0"/>
<feBlend mode="normal" in2="BackgroundImageFix" result="effect1_dropShadow_163_2379"/>
<feBlend mode="normal" in="SourceGraphic" in2="effect1_dropShadow_163_2379" result="shape"/>
</filter>
<filter id="filter2_d_163_2379" x="44.2264" y="-0.403946" width="20.8174" height="20.6615" filterUnits="userSpaceOnUse" color-interpolation-filters="sRGB">
<feFlood flood-opacity="0" result="BackgroundImageFix"/>
<feColorMatrix in="SourceAlpha" type="matrix" values="0 0 0 0 0 0 0 0 0 0 0 0 0 0 0 0 0 0 127 0" result="hardAlpha"/>
<feOffset dy="1"/>
<feGaussianBlur stdDeviation="1"/>
<feColorMatrix type="matrix" values="0 0 0 0 0 0 0 0 0 0 0 0 0 0 0 0 0 0 0.15 0"/>
<feBlend mode="normal" in2="BackgroundImageFix" result="effect1_dropShadow_163_2379"/>
<feBlend mode="normal" in="SourceGraphic" in2="effect1_dropShadow_163_2379" result="shape"/>
</filter>
<filter id="filter3_d_163_2379" x="48.2001" y="-0.440186" width="12.9047" height="12.8201" filterUnits="userSpaceOnUse" color-interpolation-filters="sRGB">
<feFlood flood-opacity="0" result="BackgroundImageFix"/>
<feColorMatrix in="SourceAlpha" type="matrix" values="0 0 0 0 0 0 0 0 0 0 0 0 0 0 0 0 0 0 127 0" result="hardAlpha"/>
<feOffset dy="1"/>
<feGaussianBlur stdDeviation="1"/>
<feColorMatrix type="matrix" values="0 0 0 0 0 0 0 0 0 0 0 0 0 0 0 0 0 0 0.15 0"/>
<feBlend mode="normal" in2="BackgroundImageFix" result="effect1_dropShadow_163_2379"/>
<feBlend mode="normal" in="SourceGraphic" in2="effect1_dropShadow_163_2379" result="shape"/>
</filter>
<filter id="filter4_d_163_2379" x="41.2142" y="16.61" width="26.8683" height="26.6724" filterUnits="userSpaceOnUse" color-interpolation-filters="sRGB">
<feFlood flood-opacity="0" result="BackgroundImageFix"/>
<feColorMatrix in="SourceAlpha" type="matrix" values="0 0 0 0 0 0 0 0 0 0 0 0 0 0 0 0 0 0 127 0" result="hardAlpha"/>
<feOffset dy="1"/>
<feGaussianBlur stdDeviation="1"/>
<feColorMatrix type="matrix" values="0 0 0 0 0 0 0 0 0 0 0 0 0 0 0 0 0 0 0.15 0"/>
<feBlend mode="normal" in2="BackgroundImageFix" result="effect1_dropShadow_163_2379"/>
<feBlend mode="normal" in="SourceGraphic" in2="effect1_dropShadow_163_2379" result="shape"/>
</filter>
<filter id="filter5_d_163_2379" x="44.1045" y="16.61" width="21.0958" height="20.9374" filterUnits="userSpaceOnUse" color-interpolation-filters="sRGB">
<feFlood flood-opacity="0" result="BackgroundImageFix"/>
<feColorMatrix in="SourceAlpha" type="matrix" values="0 0 0 0 0 0 0 0 0 0 0 0 0 0 0 0 0 0 127 0" result="hardAlpha"/>
<feOffset dy="1"/>
<feGaussianBlur stdDeviation="1"/>
<feColorMatrix type="matrix" values="0 0 0 0 0 0 0 0 0 0 0 0 0 0 0 0 0 0 0.15 0"/>
<feBlend mode="normal" in2="BackgroundImageFix" result="effect1_dropShadow_163_2379"/>
<feBlend mode="normal" in="SourceGraphic" in2="effect1_dropShadow_163_2379" result="shape"/>
</filter>
<filter id="filter6_d_163_2379" x="46.9745" y="16.61" width="15.356" height="15.2527" filterUnits="userSpaceOnUse" color-interpolation-filters="sRGB">
<feFlood flood-opacity="0" result="BackgroundImageFix"/>
<feColorMatrix in="SourceAlpha" type="matrix" values="0 0 0 0 0 0 0 0 0 0 0 0 0 0 0 0 0 0 127 0" result="hardAlpha"/>
<feOffset dy="1"/>
<feGaussianBlur stdDeviation="1"/>
<feColorMatrix type="matrix" values="0 0 0 0 0 0 0 0 0 0 0 0 0 0 0 0 0 0 0.15 0"/>
<feBlend mode="normal" in2="BackgroundImageFix" result="effect1_dropShadow_163_2379"/>
<feBlend mode="normal" in="SourceGraphic" in2="effect1_dropShadow_163_2379" result="shape"/>
</filter>
<filter id="filter7_d_163_2379" x="41.2142" y="16.4368" width="9.76025" height="15.4178" filterUnits="userSpaceOnUse" color-interpolation-filters="sRGB">
<feFlood flood-opacity="0" result="BackgroundImageFix"/>
<feColorMatrix in="SourceAlpha" type="matrix" values="0 0 0 0 0 0 0 0 0 0 0 0 0 0 0 0 0 0 127 0" result="hardAlpha"/>
<feOffset dy="1"/>
<feGaussianBlur stdDeviation="1"/>
<feColorMatrix type="matrix" values="0 0 0 0 0 0 0 0 0 0 0 0 0 0 0 0 0 0 0.15 0"/>
<feBlend mode="normal" in2="BackgroundImageFix" result="effect1_dropShadow_163_2379"/>
<feBlend mode="normal" in="SourceGraphic" in2="effect1_dropShadow_163_2379" result="shape"/>
</filter>
<filter id="filter8_d_163_2379" x="58.2898" y="16.4368" width="9.79285" height="15.4178" filterUnits="userSpaceOnUse" color-interpolation-filters="sRGB">
<feFlood flood-opacity="0" result="BackgroundImageFix"/>
<feColorMatrix in="SourceAlpha" type="matrix" values="0 0 0 0 0 0 0 0 0 0 0 0 0 0 0 0 0 0 127 0" result="hardAlpha"/>
<feOffset dy="1"/>
<feGaussianBlur stdDeviation="1"/>
<feColorMatrix type="matrix" values="0 0 0 0 0 0 0 0 0 0 0 0 0 0 0 0 0 0 0.15 0"/>
<feBlend mode="normal" in2="BackgroundImageFix" result="effect1_dropShadow_163_2379"/>
<feBlend mode="normal" in="SourceGraphic" in2="effect1_dropShadow_163_2379" result="shape"/>
</filter>
<filter id="filter9_d_163_2379" x="49.8038" y="16.61" width="9.69727" height="9.64445" filterUnits="userSpaceOnUse" color-interpolation-filters="sRGB">
<feFlood flood-opacity="0" result="BackgroundImageFix"/>
<feColorMatrix in="SourceAlpha" type="matrix" values="0 0 0 0 0 0 0 0 0 0 0 0 0 0 0 0 0 0 127 0" result="hardAlpha"/>
<feOffset dy="1"/>
<feGaussianBlur stdDeviation="1"/>
<feColorMatrix type="matrix" values="0 0 0 0 0 0 0 0 0 0 0 0 0 0 0 0 0 0 0.15 0"/>
<feBlend mode="normal" in2="BackgroundImageFix" result="effect1_dropShadow_163_2379"/>
<feBlend mode="normal" in="SourceGraphic" in2="effect1_dropShadow_163_2379" result="shape"/>
</filter>
<linearGradient id="paint0_linear_163_2379" x1="51.6983" y1="-0.239731" x2="52.1691" y2="28.069" gradientUnits="userSpaceOnUse">
<stop offset="0.35" stop-color="#90B325"/>
<stop offset="0.64" stop-color="#44E66B"/>
<stop offset="1" stop-color="#1FEDA9"/>
</linearGradient>
<linearGradient id="paint1_linear_163_2379" x1="51.6983" y1="-0.239731" x2="52.0759" y2="22.4312" gradientUnits="userSpaceOnUse">
<stop stop-color="#FA35AF"/>
<stop offset="0.32" stop-color="#F97F56"/>
<stop offset="0.57" stop-color="#FAC534"/>
<stop offset="0.89" stop-color="#ADFA83"/>
</linearGradient>
<linearGradient id="paint2_linear_163_2379" x1="51.6861" y1="-0.227697" x2="51.9639" y2="16.4347" gradientUnits="userSpaceOnUse">
<stop offset="0.15" stop-color="#FA35AF"/>
<stop offset="0.55" stop-color="#FF4283"/>
<stop offset="0.89" stop-color="#FFA544"/>
</linearGradient>
<linearGradient id="paint3_linear_163_2379" x1="56.2817" y1="1.45794" x2="56.4248" y2="10.2788" gradientUnits="userSpaceOnUse">
<stop offset="0.15" stop-color="#FF1D25"/>
<stop offset="0.72" stop-color="#FE4088"/>
</linearGradient>
<linearGradient id="paint4_linear_163_2379" x1="51.7405" y1="16.7914" x2="52.1181" y2="39.4623" gradientUnits="userSpaceOnUse">
<stop offset="0.38" stop-color="#008ED5"/>
<stop offset="0.59" stop-color="#645ED8"/>
<stop offset="0.89" stop-color="#C05CD7"/>
</linearGradient>
<linearGradient id="paint5_linear_163_2379" x1="54.6514" y1="17.61" x2="54.6514" y2="34.5473" gradientUnits="userSpaceOnUse">
<stop stop-color="#0AD4F6"/>
<stop offset="1" stop-color="#5665D8"/>
</linearGradient>
<linearGradient id="paint6_linear_163_2379" x1="54.6514" y1="17.61" x2="54.6514" y2="28.8626" gradientUnits="userSpaceOnUse">
<stop offset="0.38" stop-color="#0BB9B0"/>
<stop offset="0.59" stop-color="#02BFBF"/>
<stop offset="0.89" stop-color="#0AD4F6"/>
</linearGradient>
<linearGradient id="paint7_linear_163_2379" x1="46.0944" y1="17.4368" x2="46.0944" y2="28.8545" gradientUnits="userSpaceOnUse">
<stop offset="0.38" stop-color="#0BB9B0"/>
<stop offset="0.59" stop-color="#02BFBF"/>
<stop offset="0.89" stop-color="#0AD4F6"/>
</linearGradient>
<linearGradient id="paint8_linear_163_2379" x1="63.1862" y1="17.4368" x2="63.1862" y2="28.8545" gradientUnits="userSpaceOnUse">
<stop offset="0.38" stop-color="#0BB9B0"/>
<stop offset="0.59" stop-color="#02BFBF"/>
<stop offset="0.89" stop-color="#0AD4F6"/>
</linearGradient>
<linearGradient id="paint9_linear_163_2379" x1="54.6514" y1="17.61" x2="54.6514" y2="23.2544" gradientUnits="userSpaceOnUse">
<stop offset="0.38" stop-color="#8AF9A8"/>
<stop offset="0.59" stop-color="#5FE49E"/>
<stop offset="0.89" stop-color="#0CE6ED"/>
</linearGradient>
<clipPath id="clip0_163_2379">
<rect width="109" height="69" fill="white"/>
</clipPath>
</defs>
</svg>
