<svg width="103" height="18" viewBox="0 0 103 18" fill="none" xmlns="http://www.w3.org/2000/svg">
<path d="M16.7963 9.22796C16.7963 11.3929 16.059 13.3505 14.8359 14.8249L17.143 16.8758L16.4057 17.7509L14.03 15.6544C12.6697 16.8529 10.8694 17.5664 8.81754 17.5664C4.15757 17.5664 0.836914 13.8813 0.836914 9.22796C0.836914 4.5746 4.15947 0.889572 8.81754 0.889572C13.4756 0.889572 16.7982 4.5746 16.7982 9.22796H16.7963ZM10.776 11.1627L13.9366 14.0183C14.9521 12.7513 15.5522 11.0695 15.5522 9.22796C15.5522 5.26518 12.8298 2.06338 8.81754 2.06338C4.80532 2.06338 2.08097 5.26518 2.08097 9.22796C2.08097 13.1907 4.80341 16.3925 8.81754 16.3925C10.5245 16.3925 12.001 15.8161 13.1308 14.8497L10.0159 12.0626L10.7779 11.1646L10.776 11.1627Z" fill="#E6E6E6"/>
<path d="M30.3361 1.16542H31.5363V11.2312C31.5363 14.9866 29.4826 17.5663 25.7923 17.5663C22.1021 17.5663 20.0483 14.9866 20.0483 11.2312V1.16542H21.2486V11.1171C21.2486 14.2504 22.586 16.3925 25.7923 16.3925C28.9987 16.3925 30.3361 14.2504 30.3361 11.1171V1.16542Z" fill="#E6E6E6"/>
<path d="M40.279 1.16542H41.6164L48.052 17.2886H46.7603L44.9142 12.5896H36.9793L35.1332 17.2886H33.8416L40.2771 1.16542H40.279ZM37.4423 11.4843H44.4551L40.9496 2.50093L37.4442 11.4843H37.4423Z" fill="#E6E6E6"/>
<path d="M51.5594 1.16542L61.4775 15.2168V1.16542H62.6778V17.2886H61.4775L51.5594 3.19152V17.2886H50.3591V1.16542H51.5594Z" fill="#E6E6E6"/>
<path d="M69.9439 2.27074H65.0763V1.16542H76.0099V2.27074H71.1423V17.2886H69.942V2.27074H69.9439Z" fill="#E6E6E6"/>
<path d="M88.698 1.16542H89.8983V11.2312C89.8983 14.9866 87.8445 17.5663 84.1543 17.5663C80.464 17.5663 78.4103 14.9866 78.4103 11.2312V1.16542H79.6105V11.1171C79.6105 14.2504 80.9479 16.3925 84.1543 16.3925C87.3606 16.3925 88.698 14.2504 88.698 11.1171V1.16542Z" fill="#E6E6E6"/>
<path d="M98.1551 9.61796C95.7794 8.58113 93.8191 7.33693 93.8191 4.8961C93.8191 3.07547 95.2955 0.887665 98.3171 0.887665C101.339 0.887665 102.699 3.21435 102.699 3.21435L101.777 3.92776C101.777 3.92776 100.624 2.06147 98.34 2.06147C96.3091 2.06147 95.0174 3.28284 95.0174 4.8942C95.0174 6.87464 96.8406 7.74976 99.1458 8.76376C101.615 9.84625 102.998 11.0904 102.998 13.2554C102.998 15.858 100.876 17.5625 98.178 17.5625C94.6249 17.5625 93.1732 14.2694 93.1732 14.2694L94.2572 13.6245C94.2572 13.6245 95.3184 16.3887 98.178 16.3887C100.184 16.3887 101.8 15.1902 101.8 13.2554C101.8 11.3206 100.047 10.4455 98.1551 9.61606V9.61796Z" fill="#E6E6E6"/>
</svg>
