<svg width="17" height="17" viewBox="0 0 17 17" fill="none" xmlns="http://www.w3.org/2000/svg">
<path d="M0.85 5.95C1.07543 5.95 1.29163 5.86045 1.45104 5.70104C1.61045 5.54163 1.7 5.32543 1.7 5.1V2.55C1.7 2.32457 1.78955 2.10837 1.94896 1.94896C2.10837 1.78955 2.32457 1.7 2.55 1.7H5.1C5.32543 1.7 5.54163 1.61045 5.70104 1.45104C5.86045 1.29163 5.95 1.07543 5.95 0.85C5.95 0.624566 5.86045 0.408365 5.70104 0.248959C5.54163 0.0895533 5.32543 0 5.1 0H2.55C1.8737 0 1.2251 0.26866 0.746878 0.746878C0.26866 1.2251 0 1.8737 0 2.55V5.1C0 5.32543 0.0895533 5.54163 0.248959 5.70104C0.408365 5.86045 0.624566 5.95 0.85 5.95ZM5.1 15.3H2.55C2.32457 15.3 2.10837 15.2104 1.94896 15.051C1.78955 14.8916 1.7 14.6754 1.7 14.45V11.9C1.7 11.6746 1.61045 11.4584 1.45104 11.299C1.29163 11.1396 1.07543 11.05 0.85 11.05C0.624566 11.05 0.408365 11.1396 0.248959 11.299C0.0895533 11.4584 0 11.6746 0 11.9V14.45C0 15.1263 0.26866 15.7749 0.746878 16.2531C1.2251 16.7313 1.8737 17 2.55 17H5.1C5.32543 17 5.54163 16.9104 5.70104 16.751C5.86045 16.5916 5.95 16.3754 5.95 16.15C5.95 15.9246 5.86045 15.7084 5.70104 15.549C5.54163 15.3896 5.32543 15.3 5.1 15.3ZM14.45 0H11.9C11.6746 0 11.4584 0.0895533 11.299 0.248959C11.1396 0.408365 11.05 0.624566 11.05 0.85C11.05 1.07543 11.1396 1.29163 11.299 1.45104C11.4584 1.61045 11.6746 1.7 11.9 1.7H14.45C14.6754 1.7 14.8916 1.78955 15.051 1.94896C15.2104 2.10837 15.3 2.32457 15.3 2.55V5.1C15.3 5.32543 15.3896 5.54163 15.549 5.70104C15.7084 5.86045 15.9246 5.95 16.15 5.95C16.3754 5.95 16.5916 5.86045 16.751 5.70104C16.9104 5.54163 17 5.32543 17 5.1V2.55C17 1.8737 16.7313 1.2251 16.2531 0.746878C15.7749 0.26866 15.1263 0 14.45 0ZM16.15 11.05C15.9246 11.05 15.7084 11.1396 15.549 11.299C15.3896 11.4584 15.3 11.6746 15.3 11.9V14.45C15.3 14.6754 15.2104 14.8916 15.051 15.051C14.8916 15.2104 14.6754 15.3 14.45 15.3H11.9C11.6746 15.3 11.4584 15.3896 11.299 15.549C11.1396 15.7084 11.05 15.9246 11.05 16.15C11.05 16.3754 11.1396 16.5916 11.299 16.751C11.4584 16.9104 11.6746 17 11.9 17H14.45C15.1263 17 15.7749 16.7313 16.2531 16.2531C16.7313 15.7749 17 15.1263 17 14.45V11.9C17 11.6746 16.9104 11.4584 16.751 11.299C16.5916 11.1396 16.3754 11.05 16.15 11.05Z" fill="#E6E6E6"/>
</svg>
