<svg preserveAspectRatio="none" overflow="visible" style="display: block;" width="16" height="16" viewBox="0 0 16 16" fill="none" xmlns="http://www.w3.org/2000/svg">
<g id="QrCode">
<path id="Vector" d="M6.25 2.25H3.5C3.16848 2.25 2.85054 2.3817 2.61612 2.61612C2.3817 2.85054 2.25 3.16848 2.25 3.5V6.25C2.25 6.58152 2.3817 6.89946 2.61612 7.13388C2.85054 7.3683 3.16848 7.5 3.5 7.5H6.25C6.58152 7.5 6.89946 7.3683 7.13388 7.13388C7.3683 6.89946 7.5 6.58152 7.5 6.25V3.5C7.5 3.16848 7.3683 2.85054 7.13388 2.61612C6.89946 2.3817 6.58152 2.25 6.25 2.25ZM6 6H3.75V3.75H6V6ZM6.25 8.5H3.5C3.16848 8.5 2.85054 8.6317 2.61612 8.86612C2.3817 9.10054 2.25 9.41848 2.25 9.75V12.5C2.25 12.8315 2.3817 13.1495 2.61612 13.3839C2.85054 13.6183 3.16848 13.75 3.5 13.75H6.25C6.58152 13.75 6.89946 13.6183 7.13388 13.3839C7.3683 13.1495 7.5 12.8315 7.5 12.5V9.75C7.5 9.41848 7.3683 9.10054 7.13388 8.86612C6.89946 8.6317 6.58152 8.5 6.25 8.5ZM6 12.25H3.75V10H6V12.25ZM12.5 2.25H9.75C9.41848 2.25 9.10054 2.3817 8.86612 2.61612C8.6317 2.85054 8.5 3.16848 8.5 3.5V6.25C8.5 6.58152 8.6317 6.89946 8.86612 7.13388C9.10054 7.3683 9.41848 7.5 9.75 7.5H12.5C12.8315 7.5 13.1495 7.3683 13.3839 7.13388C13.6183 6.89946 13.75 6.58152 13.75 6.25V3.5C13.75 3.16848 13.6183 2.85054 13.3839 2.61612C13.1495 2.3817 12.8315 2.25 12.5 2.25ZM12.25 6H10V3.75H12.25V6ZM8.5 10.75V9.25C8.5 9.05109 8.57902 8.86032 8.71967 8.71967C8.86032 8.57902 9.05109 8.5 9.25 8.5C9.44891 8.5 9.63968 8.57902 9.78033 8.71967C9.92098 8.86032 10 9.05109 10 9.25V10.75C10 10.9489 9.92098 11.1397 9.78033 11.2803C9.63968 11.421 9.44891 11.5 9.25 11.5C9.05109 11.5 8.86032 11.421 8.71967 11.2803C8.57902 11.1397 8.5 10.9489 8.5 10.75ZM13.75 10.25C13.75 10.4489 13.671 10.6397 13.5303 10.7803C13.3897 10.921 13.1989 11 13 11H12.25V13C12.25 13.1989 12.171 13.3897 12.0303 13.5303C11.8897 13.671 11.6989 13.75 11.5 13.75H9.25C9.05109 13.75 8.86032 13.671 8.71967 13.5303C8.57902 13.3897 8.5 13.1989 8.5 13C8.5 12.8011 8.57902 12.6103 8.71967 12.4697C8.86032 12.329 9.05109 12.25 9.25 12.25H10.75V9.25C10.75 9.05109 10.829 8.86032 10.9697 8.71967C11.1103 8.57902 11.3011 8.5 11.5 8.5C11.6989 8.5 11.8897 8.57902 12.0303 8.71967C12.171 8.86032 12.25 9.05109 12.25 9.25V9.5H13C13.1989 9.5 13.3897 9.57902 13.5303 9.71967C13.671 9.86032 13.75 10.0511 13.75 10.25Z" fill="var(--fill-0, #FF6B35)"/>
</g>
</svg>
