<svg width="23" height="23" viewBox="0 0 23 23" fill="none" xmlns="http://www.w3.org/2000/svg">
<g opacity="0.5">
<path d="M19.5883 11.5C19.585 11.8429 19.5604 12.1854 19.5146 12.5254L21.7721 14.2634C21.875 14.34 21.9454 14.4508 21.9696 14.5747C21.9939 14.6987 21.9704 14.8269 21.9037 14.9351L19.7461 18.5803C19.6836 18.6896 19.5823 18.7729 19.4611 18.8145C19.3399 18.856 19.2073 18.853 19.0883 18.8059L16.3993 17.7497C15.8408 18.1673 15.2287 18.512 14.5785 18.7751L14.1733 21.5591C14.1554 21.6822 14.0922 21.7949 13.9954 21.876C13.8985 21.9571 13.7747 22.0012 13.647 22H9.3319C9.20421 22.0012 9.08042 21.9571 8.9836 21.876C8.88678 21.7949 8.82354 21.6822 8.80567 21.5591L8.40047 18.7751C7.75113 18.5104 7.13924 18.1658 6.57969 17.7497L3.89062 18.8059C3.77161 18.853 3.63902 18.856 3.51786 18.8145C3.39669 18.7729 3.29531 18.6896 3.23282 18.5803L1.07525 14.9351C1.00853 14.8269 0.985058 14.6987 1.00933 14.5747C1.0336 14.4508 1.10391 14.34 1.20681 14.2634L3.48015 12.5254C3.43431 12.1854 3.40971 11.8429 3.40648 11.5C3.40989 11.1571 3.43449 10.8147 3.48015 10.4746L1.20681 8.73658C1.10391 8.66001 1.0336 8.54916 1.00933 8.42525C0.985058 8.30134 1.00853 8.17306 1.07525 8.06495L3.23282 4.41969C3.29531 4.31036 3.39669 4.22706 3.51786 4.18551C3.63902 4.14395 3.77161 4.14701 3.89062 4.19411L6.59021 5.25026C7.14871 4.83267 7.76082 4.48796 8.41099 4.22487L8.81619 1.44094C8.83407 1.31775 8.8973 1.2051 8.99412 1.12398C9.09094 1.04286 9.21474 0.9988 9.34243 1.00002H13.6681C13.7958 0.9988 13.9196 1.04286 14.0164 1.12398C14.1132 1.2051 14.1765 1.31775 14.1943 1.44094L14.5995 4.22487C15.2489 4.4896 15.8608 4.8342 16.4203 5.25026L19.1094 4.19411C19.2284 4.14701 19.361 4.14395 19.4821 4.18551C19.6033 4.22706 19.7047 4.31036 19.7672 4.41969L21.9248 8.06495C21.9915 8.17306 22.0149 8.30134 21.9907 8.42525C21.9664 8.54916 21.8961 8.66001 21.7932 8.73658L19.5146 10.4746C19.5604 10.8146 19.585 11.1571 19.5883 11.5Z" stroke="white" stroke-linecap="round" stroke-linejoin="round"/>
<circle cx="11.5" cy="11.5" r="4" stroke="white"/>
</g>
</svg>
