<svg xmlns="http://www.w3.org/2000/svg" viewBox="0 0 69 69" width="552" height="552" shape-rendering="crispEdges"><rect width="69" height="69" fill="#fff"/><path d="M4 4h7v1h-7zM12 4h3v1h-3zM18 4h1v1h-1zM23 4h1v1h-1zM27 4h1v1h-1zM30 4h3v1h-3zM36 4h1v1h-1zM39 4h1v1h-1zM42 4h2v1h-2zM46 4h2v1h-2zM55 4h2v1h-2zM58 4h7v1h-7zM4 5h1v1h-1zM10 5h1v1h-1zM12 5h8v1h-8zM22 5h1v1h-1zM29 5h2v1h-2zM32 5h2v1h-2zM35 5h1v1h-1zM37 5h1v1h-1zM40 5h4v1h-4zM48 5h3v1h-3zM55 5h2v1h-2zM58 5h1v1h-1zM64 5h1v1h-1zM4 6h1v1h-1zM6 6h3v1h-3zM10 6h1v1h-1zM12 6h1v1h-1zM14 6h4v1h-4zM19 6h2v1h-2zM24 6h2v1h-2zM28 6h1v1h-1zM30 6h1v1h-1zM32 6h1v1h-1zM36 6h3v1h-3zM40 6h2v1h-2zM43 6h1v1h-1zM45 6h2v1h-2zM48 6h1v1h-1zM50 6h2v1h-2zM54 6h3v1h-3zM58 6h1v1h-1zM60 6h3v1h-3zM64 6h1v1h-1zM4 7h1v1h-1zM6 7h3v1h-3zM10 7h1v1h-1zM12 7h1v1h-1zM14 7h2v1h-2zM17 7h1v1h-1zM19 7h2v1h-2zM23 7h1v1h-1zM25 7h2v1h-2zM30 7h14v1h-14zM45 7h3v1h-3zM49 7h1v1h-1zM54 7h1v1h-1zM56 7h1v1h-1zM58 7h1v1h-1zM60 7h3v1h-3zM64 7h1v1h-1zM4 8h1v1h-1zM6 8h3v1h-3zM10 8h1v1h-1zM13 8h1v1h-1zM20 8h1v1h-1zM22 8h1v1h-1zM25 8h2v1h-2zM28 8h3v1h-3zM32 8h8v1h-8zM42 8h2v1h-2zM45 8h1v1h-1zM47 8h2v1h-2zM52 8h1v1h-1zM54 8h2v1h-2zM58 8h1v1h-1zM60 8h3v1h-3zM64 8h1v1h-1zM4 9h1v1h-1zM10 9h1v1h-1zM12 9h1v1h-1zM14 9h3v1h-3zM18 9h1v1h-1zM20 9h2v1h-2zM23 9h1v1h-1zM25 9h1v1h-1zM27 9h4v1h-4zM32 9h1v1h-1zM36 9h3v1h-3zM42 9h2v1h-2zM45 9h2v1h-2zM49 9h6v1h-6zM58 9h1v1h-1zM64 9h1v1h-1zM4 10h7v1h-7zM12 10h1v1h-1zM14 10h1v1h-1zM16 10h1v1h-1zM18 10h1v1h-1zM20 10h1v1h-1zM22 10h1v1h-1zM24 10h1v1h-1zM26 10h1v1h-1zM28 10h1v1h-1zM30 10h1v1h-1zM32 10h1v1h-1zM34 10h1v1h-1zM36 10h1v1h-1zM38 10h1v1h-1zM40 10h1v1h-1zM42 10h1v1h-1zM44 10h1v1h-1zM46 10h1v1h-1zM48 10h1v1h-1zM50 10h1v1h-1zM52 10h1v1h-1zM54 10h1v1h-1zM56 10h1v1h-1zM58 10h7v1h-7zM15 11h1v1h-1zM18 11h6v1h-6zM26 11h1v1h-1zM29 11h1v1h-1zM32 11h1v1h-1zM36 11h1v1h-1zM38 11h2v1h-2zM44 11h1v1h-1zM46 11h1v1h-1zM49 11h4v1h-4zM54 11h1v1h-1zM56 11h1v1h-1zM4 12h2v1h-2zM8 12h3v1h-3zM13 12h2v1h-2zM17 12h1v1h-1zM19 12h1v1h-1zM21 12h1v1h-1zM24 12h1v1h-1zM26 12h1v1h-1zM29 12h2v1h-2zM32 12h5v1h-5zM38 12h3v1h-3zM42 12h2v1h-2zM45 12h1v1h-1zM47 12h1v1h-1zM49 12h2v1h-2zM53 12h3v1h-3zM59 12h1v1h-1zM61 12h4v1h-4zM4 13h1v1h-1zM6 13h4v1h-4zM11 13h4v1h-4zM18 13h3v1h-3zM22 13h4v1h-4zM27 13h2v1h-2zM30 13h7v1h-7zM38 13h1v1h-1zM40 13h2v1h-2zM47 13h2v1h-2zM52 13h4v1h-4zM59 13h1v1h-1zM4 14h3v1h-3zM8 14h1v1h-1zM10 14h5v1h-5zM16 14h5v1h-5zM23 14h1v1h-1zM25 14h1v1h-1zM27 14h1v1h-1zM30 14h8v1h-8zM45 14h4v1h-4zM50 14h3v1h-3zM54 14h4v1h-4zM60 14h2v1h-2zM64 14h1v1h-1zM5 15h3v1h-3zM9 15h1v1h-1zM11 15h2v1h-2zM14 15h1v1h-1zM16 15h1v1h-1zM20 15h3v1h-3zM25 15h2v1h-2zM28 15h2v1h-2zM33 15h1v1h-1zM36 15h1v1h-1zM38 15h1v1h-1zM41 15h1v1h-1zM45 15h3v1h-3zM52 15h1v1h-1zM54 15h1v1h-1zM58 15h2v1h-2zM64 15h1v1h-1zM5 16h1v1h-1zM7 16h2v1h-2zM10 16h1v1h-1zM12 16h3v1h-3zM18 16h4v1h-4zM26 16h1v1h-1zM28 16h2v1h-2zM32 16h1v1h-1zM39 16h3v1h-3zM44 16h1v1h-1zM46 16h2v1h-2zM49 16h1v1h-1zM53 16h4v1h-4zM60 16h2v1h-2zM63 16h2v1h-2zM4 17h1v1h-1zM6 17h1v1h-1zM8 17h1v1h-1zM11 17h1v1h-1zM13 17h1v1h-1zM15 17h2v1h-2zM18 17h1v1h-1zM20 17h5v1h-5zM26 17h1v1h-1zM28 17h1v1h-1zM31 17h2v1h-2zM34 17h3v1h-3zM39 17h1v1h-1zM41 17h1v1h-1zM45 17h1v1h-1zM47 17h1v1h-1zM49 17h1v1h-1zM51 17h2v1h-2zM54 17h1v1h-1zM56 17h3v1h-3zM61 17h2v1h-2zM64 17h1v1h-1zM6 18h1v1h-1zM10 18h1v1h-1zM12 18h1v1h-1zM17 18h2v1h-2zM20 18h2v1h-2zM24 18h8v1h-8zM35 18h1v1h-1zM37 18h1v1h-1zM39 18h4v1h-4zM44 18h2v1h-2zM47 18h1v1h-1zM49 18h1v1h-1zM51 18h3v1h-3zM55 18h4v1h-4zM61 18h2v1h-2zM5 19h1v1h-1zM7 19h2v1h-2zM11 19h1v1h-1zM13 19h1v1h-1zM15 19h2v1h-2zM18 19h1v1h-1zM21 19h1v1h-1zM24 19h1v1h-1zM26 19h1v1h-1zM30 19h1v1h-1zM32 19h2v1h-2zM35 19h1v1h-1zM38 19h3v1h-3zM42 19h5v1h-5zM49 19h1v1h-1zM51 19h1v1h-1zM55 19h1v1h-1zM62 19h1v1h-1zM4 20h8v1h-8zM13 20h4v1h-4zM21 20h2v1h-2zM24 20h1v1h-1zM27 20h2v1h-2zM33 20h4v1h-4zM44 20h1v1h-1zM46 20h1v1h-1zM48 20h2v1h-2zM51 20h1v1h-1zM54 20h2v1h-2zM57 20h2v1h-2zM61 20h1v1h-1zM64 20h1v1h-1zM4 21h1v1h-1zM6 21h1v1h-1zM9 21h1v1h-1zM11 21h10v1h-10zM22 21h1v1h-1zM24 21h2v1h-2zM28 21h4v1h-4zM37 21h1v1h-1zM40 21h1v1h-1zM42 21h2v1h-2zM45 21h1v1h-1zM48 21h4v1h-4zM53 21h1v1h-1zM55 21h1v1h-1zM58 21h4v1h-4zM64 21h1v1h-1zM4 22h1v1h-1zM6 22h1v1h-1zM8 22h4v1h-4zM13 22h4v1h-4zM19 22h1v1h-1zM23 22h2v1h-2zM26 22h1v1h-1zM29 22h2v1h-2zM32 22h3v1h-3zM37 22h1v1h-1zM39 22h3v1h-3zM43 22h1v1h-1zM45 22h1v1h-1zM49 22h1v1h-1zM51 22h2v1h-2zM55 22h1v1h-1zM60 22h2v1h-2zM63 22h2v1h-2zM5 23h3v1h-3zM9 23h1v1h-1zM14 23h3v1h-3zM18 23h1v1h-1zM21 23h2v1h-2zM26 23h2v1h-2zM32 23h1v1h-1zM35 23h2v1h-2zM38 23h1v1h-1zM41 23h1v1h-1zM45 23h1v1h-1zM49 23h1v1h-1zM52 23h1v1h-1zM54 23h1v1h-1zM56 23h3v1h-3zM60 23h5v1h-5zM6 24h2v1h-2zM10 24h3v1h-3zM14 24h1v1h-1zM16 24h2v1h-2zM20 24h1v1h-1zM22 24h2v1h-2zM25 24h1v1h-1zM28 24h1v1h-1zM30 24h7v1h-7zM42 24h1v1h-1zM45 24h1v1h-1zM47 24h1v1h-1zM49 24h1v1h-1zM52 24h1v1h-1zM54 24h1v1h-1zM60 24h1v1h-1zM62 24h1v1h-1zM64 24h1v1h-1zM5 25h1v1h-1zM7 25h3v1h-3zM12 25h2v1h-2zM16 25h1v1h-1zM18 25h2v1h-2zM23 25h2v1h-2zM26 25h2v1h-2zM30 25h1v1h-1zM35 25h2v1h-2zM38 25h3v1h-3zM43 25h1v1h-1zM45 25h3v1h-3zM50 25h2v1h-2zM53 25h3v1h-3zM57 25h3v1h-3zM62 25h1v1h-1zM64 25h1v1h-1zM5 26h1v1h-1zM9 26h3v1h-3zM13 26h1v1h-1zM16 26h1v1h-1zM18 26h4v1h-4zM23 26h1v1h-1zM27 26h1v1h-1zM29 26h3v1h-3zM33 26h1v1h-1zM37 26h1v1h-1zM39 26h1v1h-1zM51 26h2v1h-2zM54 26h1v1h-1zM56 26h4v1h-4zM4 27h4v1h-4zM13 27h1v1h-1zM15 27h2v1h-2zM20 27h1v1h-1zM24 27h5v1h-5zM30 27h4v1h-4zM35 27h1v1h-1zM42 27h5v1h-5zM50 27h1v1h-1zM54 27h1v1h-1zM57 27h4v1h-4zM62 27h1v1h-1zM64 27h1v1h-1zM7 28h1v1h-1zM9 28h3v1h-3zM15 28h1v1h-1zM17 28h2v1h-2zM22 28h3v1h-3zM28 28h1v1h-1zM36 28h1v1h-1zM38 28h1v1h-1zM41 28h1v1h-1zM44 28h1v1h-1zM46 28h2v1h-2zM52 28h1v1h-1zM54 28h1v1h-1zM57 28h1v1h-1zM59 28h1v1h-1zM61 28h1v1h-1zM63 28h2v1h-2zM4 29h3v1h-3zM8 29h1v1h-1zM11 29h2v1h-2zM14 29h1v1h-1zM16 29h1v1h-1zM18 29h2v1h-2zM21 29h2v1h-2zM26 29h1v1h-1zM29 29h2v1h-2zM32 29h1v1h-1zM35 29h3v1h-3zM39 29h1v1h-1zM41 29h2v1h-2zM44 29h4v1h-4zM49 29h1v1h-1zM51 29h4v1h-4zM56 29h1v1h-1zM58 29h3v1h-3zM62 29h1v1h-1zM64 29h1v1h-1zM10 30h1v1h-1zM14 30h1v1h-1zM17 30h6v1h-6zM24 30h3v1h-3zM30 30h1v1h-1zM32 30h2v1h-2zM39 30h7v1h-7zM47 30h1v1h-1zM49 30h1v1h-1zM54 30h2v1h-2zM58 30h1v1h-1zM60 30h2v1h-2zM63 30h2v1h-2zM4 31h1v1h-1zM7 31h1v1h-1zM11 31h3v1h-3zM15 31h2v1h-2zM19 31h1v1h-1zM22 31h3v1h-3zM28 31h1v1h-1zM30 31h3v1h-3zM34 31h1v1h-1zM38 31h4v1h-4zM43 31h1v1h-1zM46 31h2v1h-2zM49 31h1v1h-1zM52 31h2v1h-2zM55 31h3v1h-3zM59 31h1v1h-1zM4 32h2v1h-2zM7 32h6v1h-6zM15 32h2v1h-2zM18 32h1v1h-1zM21 32h1v1h-1zM23 32h2v1h-2zM27 32h10v1h-10zM38 32h9v1h-9zM50 32h1v1h-1zM55 32h7v1h-7zM63 32h2v1h-2zM4 33h1v1h-1zM6 33h1v1h-1zM8 33h1v1h-1zM12 33h2v1h-2zM16 33h1v1h-1zM19 33h1v1h-1zM21 33h3v1h-3zM25 33h1v1h-1zM27 33h2v1h-2zM32 33h1v1h-1zM36 33h2v1h-2zM43 33h1v1h-1zM46 33h3v1h-3zM51 33h2v1h-2zM54 33h1v1h-1zM56 33h1v1h-1zM60 33h1v1h-1zM63 33h1v1h-1zM6 34h3v1h-3zM10 34h1v1h-1zM12 34h1v1h-1zM14 34h3v1h-3zM22 34h2v1h-2zM29 34h1v1h-1zM31 34h2v1h-2zM34 34h1v1h-1zM36 34h1v1h-1zM39 34h3v1h-3zM44 34h1v1h-1zM47 34h1v1h-1zM50 34h1v1h-1zM52 34h1v1h-1zM55 34h2v1h-2zM58 34h1v1h-1zM60 34h1v1h-1zM62 34h2v1h-2zM4 35h2v1h-2zM7 35h2v1h-2zM12 35h1v1h-1zM15 35h1v1h-1zM18 35h3v1h-3zM25 35h1v1h-1zM28 35h1v1h-1zM30 35h3v1h-3zM36 35h3v1h-3zM41 35h1v1h-1zM47 35h2v1h-2zM50 35h3v1h-3zM54 35h1v1h-1zM56 35h1v1h-1zM60 35h2v1h-2zM63 35h2v1h-2zM5 36h1v1h-1zM8 36h8v1h-8zM18 36h2v1h-2zM21 36h2v1h-2zM24 36h3v1h-3zM28 36h1v1h-1zM30 36h7v1h-7zM38 36h1v1h-1zM40 36h2v1h-2zM43 36h1v1h-1zM45 36h6v1h-6zM52 36h2v1h-2zM56 36h5v1h-5zM6 37h2v1h-2zM11 37h1v1h-1zM14 37h3v1h-3zM18 37h1v1h-1zM24 37h1v1h-1zM27 37h1v1h-1zM30 37h1v1h-1zM34 37h3v1h-3zM38 37h7v1h-7zM46 37h2v1h-2zM49 37h1v1h-1zM52 37h9v1h-9zM62 37h1v1h-1zM5 38h4v1h-4zM10 38h2v1h-2zM13 38h1v1h-1zM17 38h1v1h-1zM20 38h4v1h-4zM27 38h2v1h-2zM31 38h1v1h-1zM34 38h5v1h-5zM42 38h1v1h-1zM44 38h1v1h-1zM48 38h2v1h-2zM53 38h3v1h-3zM57 38h6v1h-6zM4 39h1v1h-1zM7 39h1v1h-1zM14 39h1v1h-1zM19 39h3v1h-3zM23 39h3v1h-3zM28 39h2v1h-2zM32 39h3v1h-3zM43 39h1v1h-1zM45 39h2v1h-2zM50 39h1v1h-1zM53 39h1v1h-1zM56 39h1v1h-1zM58 39h1v1h-1zM63 39h1v1h-1zM5 40h2v1h-2zM9 40h2v1h-2zM12 40h1v1h-1zM14 40h1v1h-1zM19 40h1v1h-1zM21 40h1v1h-1zM23 40h1v1h-1zM25 40h1v1h-1zM29 40h1v1h-1zM33 40h1v1h-1zM35 40h1v1h-1zM38 40h2v1h-2zM41 40h1v1h-1zM44 40h1v1h-1zM47 40h2v1h-2zM50 40h1v1h-1zM54 40h1v1h-1zM56 40h1v1h-1zM59 40h1v1h-1zM63 40h2v1h-2zM4 41h1v1h-1zM7 41h2v1h-2zM11 41h1v1h-1zM16 41h3v1h-3zM22 41h3v1h-3zM26 41h1v1h-1zM28 41h4v1h-4zM34 41h2v1h-2zM38 41h4v1h-4zM43 41h1v1h-1zM45 41h2v1h-2zM48 41h3v1h-3zM52 41h4v1h-4zM58 41h4v1h-4zM64 41h1v1h-1zM4 42h1v1h-1zM6 42h1v1h-1zM9 42h2v1h-2zM15 42h2v1h-2zM22 42h1v1h-1zM24 42h5v1h-5zM32 42h2v1h-2zM38 42h1v1h-1zM40 42h2v1h-2zM43 42h1v1h-1zM45 42h4v1h-4zM50 42h1v1h-1zM53 42h6v1h-6zM60 42h1v1h-1zM62 42h2v1h-2zM5 43h5v1h-5zM11 43h1v1h-1zM14 43h1v1h-1zM17 43h1v1h-1zM19 43h4v1h-4zM24 43h1v1h-1zM29 43h1v1h-1zM31 43h1v1h-1zM35 43h4v1h-4zM43 43h1v1h-1zM46 43h6v1h-6zM54 43h1v1h-1zM56 43h4v1h-4zM61 43h4v1h-4zM4 44h1v1h-1zM6 44h2v1h-2zM9 44h3v1h-3zM13 44h1v1h-1zM16 44h3v1h-3zM20 44h2v1h-2zM24 44h2v1h-2zM29 44h2v1h-2zM36 44h2v1h-2zM39 44h1v1h-1zM42 44h2v1h-2zM45 44h2v1h-2zM50 44h2v1h-2zM53 44h1v1h-1zM55 44h2v1h-2zM60 44h1v1h-1zM4 45h3v1h-3zM9 45h1v1h-1zM12 45h3v1h-3zM17 45h1v1h-1zM20 45h1v1h-1zM22 45h4v1h-4zM27 45h2v1h-2zM30 45h3v1h-3zM36 45h1v1h-1zM39 45h2v1h-2zM42 45h1v1h-1zM47 45h2v1h-2zM50 45h1v1h-1zM52 45h2v1h-2zM57 45h1v1h-1zM60 45h1v1h-1zM62 45h3v1h-3zM6 46h1v1h-1zM8 46h3v1h-3zM13 46h6v1h-6zM20 46h4v1h-4zM26 46h3v1h-3zM31 46h1v1h-1zM33 46h2v1h-2zM38 46h3v1h-3zM44 46h9v1h-9zM56 46h1v1h-1zM60 46h1v1h-1zM62 46h1v1h-1zM64 46h1v1h-1zM5 47h3v1h-3zM9 47h1v1h-1zM12 47h2v1h-2zM16 47h2v1h-2zM20 47h3v1h-3zM25 47h6v1h-6zM32 47h2v1h-2zM38 47h1v1h-1zM41 47h1v1h-1zM43 47h1v1h-1zM45 47h8v1h-8zM59 47h2v1h-2zM63 47h1v1h-1zM4 48h2v1h-2zM7 48h5v1h-5zM14 48h1v1h-1zM16 48h1v1h-1zM20 48h1v1h-1zM22 48h1v1h-1zM24 48h2v1h-2zM28 48h2v1h-2zM31 48h1v1h-1zM33 48h1v1h-1zM35 48h2v1h-2zM38 48h4v1h-4zM43 48h5v1h-5zM49 48h1v1h-1zM53 48h1v1h-1zM60 48h2v1h-2zM63 48h2v1h-2zM8 49h2v1h-2zM11 49h2v1h-2zM14 49h1v1h-1zM17 49h1v1h-1zM19 49h1v1h-1zM21 49h1v1h-1zM24 49h1v1h-1zM26 49h1v1h-1zM32 49h3v1h-3zM37 49h3v1h-3zM41 49h1v1h-1zM43 49h1v1h-1zM45 49h3v1h-3zM51 49h3v1h-3zM56 49h1v1h-1zM60 49h1v1h-1zM62 49h1v1h-1zM64 49h1v1h-1zM4 50h7v1h-7zM12 50h4v1h-4zM17 50h1v1h-1zM20 50h1v1h-1zM22 50h1v1h-1zM25 50h3v1h-3zM29 50h2v1h-2zM32 50h1v1h-1zM38 50h2v1h-2zM41 50h1v1h-1zM45 50h3v1h-3zM51 50h1v1h-1zM53 50h7v1h-7zM61 50h1v1h-1zM63 50h2v1h-2zM4 51h2v1h-2zM8 51h2v1h-2zM15 51h1v1h-1zM17 51h2v1h-2zM21 51h1v1h-1zM23 51h2v1h-2zM26 51h2v1h-2zM36 51h1v1h-1zM39 51h1v1h-1zM43 51h1v1h-1zM45 51h2v1h-2zM49 51h1v1h-1zM51 51h1v1h-1zM55 51h3v1h-3zM61 51h2v1h-2zM4 52h2v1h-2zM9 52h3v1h-3zM13 52h1v1h-1zM15 52h2v1h-2zM21 52h1v1h-1zM23 52h2v1h-2zM27 52h2v1h-2zM31 52h1v1h-1zM34 52h1v1h-1zM36 52h1v1h-1zM39 52h1v1h-1zM41 52h1v1h-1zM43 52h2v1h-2zM46 52h2v1h-2zM49 52h1v1h-1zM54 52h3v1h-3zM59 52h1v1h-1zM61 52h2v1h-2zM64 52h1v1h-1zM6 53h1v1h-1zM11 53h1v1h-1zM17 53h1v1h-1zM19 53h5v1h-5zM25 53h1v1h-1zM28 53h4v1h-4zM33 53h2v1h-2zM37 53h1v1h-1zM40 53h1v1h-1zM42 53h1v1h-1zM44 53h1v1h-1zM48 53h1v1h-1zM51 53h2v1h-2zM54 53h2v1h-2zM58 53h2v1h-2zM61 53h1v1h-1zM63 53h2v1h-2zM6 54h6v1h-6zM13 54h1v1h-1zM16 54h4v1h-4zM30 54h1v1h-1zM32 54h2v1h-2zM38 54h5v1h-5zM44 54h3v1h-3zM50 54h1v1h-1zM55 54h1v1h-1zM57 54h1v1h-1zM62 54h1v1h-1zM64 54h1v1h-1zM4 55h3v1h-3zM8 55h1v1h-1zM11 55h2v1h-2zM16 55h1v1h-1zM25 55h1v1h-1zM27 55h1v1h-1zM30 55h3v1h-3zM36 55h4v1h-4zM42 55h2v1h-2zM45 55h3v1h-3zM50 55h1v1h-1zM55 55h2v1h-2zM58 55h1v1h-1zM60 55h5v1h-5zM4 56h4v1h-4zM10 56h1v1h-1zM12 56h1v1h-1zM15 56h1v1h-1zM17 56h1v1h-1zM20 56h1v1h-1zM22 56h1v1h-1zM25 56h1v1h-1zM28 56h10v1h-10zM39 56h5v1h-5zM45 56h1v1h-1zM50 56h1v1h-1zM52 56h10v1h-10zM12 57h1v1h-1zM15 57h4v1h-4zM20 57h4v1h-4zM26 57h3v1h-3zM31 57h2v1h-2zM36 57h3v1h-3zM42 57h2v1h-2zM45 57h3v1h-3zM49 57h3v1h-3zM53 57h1v1h-1zM56 57h1v1h-1zM60 57h1v1h-1zM62 57h2v1h-2zM4 58h7v1h-7zM13 58h3v1h-3zM17 58h1v1h-1zM19 58h3v1h-3zM23 58h1v1h-1zM26 58h1v1h-1zM29 58h2v1h-2zM32 58h1v1h-1zM34 58h1v1h-1zM36 58h4v1h-4zM41 58h1v1h-1zM45 58h1v1h-1zM47 58h5v1h-5zM54 58h1v1h-1zM56 58h1v1h-1zM58 58h1v1h-1zM60 58h4v1h-4zM4 59h1v1h-1zM10 59h1v1h-1zM12 59h1v1h-1zM16 59h1v1h-1zM18 59h2v1h-2zM23 59h2v1h-2zM26 59h2v1h-2zM30 59h3v1h-3zM36 59h2v1h-2zM41 59h1v1h-1zM44 59h1v1h-1zM46 59h2v1h-2zM51 59h2v1h-2zM54 59h1v1h-1zM56 59h1v1h-1zM60 59h1v1h-1zM62 59h1v1h-1zM4 60h1v1h-1zM6 60h3v1h-3zM10 60h1v1h-1zM12 60h3v1h-3zM16 60h2v1h-2zM19 60h2v1h-2zM22 60h3v1h-3zM26 60h2v1h-2zM32 60h5v1h-5zM38 60h2v1h-2zM41 60h1v1h-1zM45 60h1v1h-1zM47 60h1v1h-1zM52 60h3v1h-3zM56 60h6v1h-6zM4 61h1v1h-1zM6 61h3v1h-3zM10 61h1v1h-1zM17 61h1v1h-1zM21 61h2v1h-2zM27 61h5v1h-5zM34 61h1v1h-1zM36 61h1v1h-1zM38 61h2v1h-2zM41 61h6v1h-6zM48 61h2v1h-2zM53 61h2v1h-2zM58 61h3v1h-3zM62 61h2v1h-2zM4 62h1v1h-1zM6 62h3v1h-3zM10 62h1v1h-1zM13 62h2v1h-2zM17 62h1v1h-1zM20 62h2v1h-2zM24 62h3v1h-3zM28 62h2v1h-2zM32 62h1v1h-1zM37 62h1v1h-1zM39 62h1v1h-1zM42 62h6v1h-6zM50 62h1v1h-1zM53 62h1v1h-1zM56 62h1v1h-1zM58 62h2v1h-2zM61 62h1v1h-1zM63 62h1v1h-1zM4 63h1v1h-1zM10 63h1v1h-1zM12 63h4v1h-4zM17 63h2v1h-2zM21 63h5v1h-5zM27 63h1v1h-1zM30 63h2v1h-2zM33 63h3v1h-3zM37 63h1v1h-1zM42 63h2v1h-2zM45 63h1v1h-1zM48 63h1v1h-1zM50 63h3v1h-3zM55 63h3v1h-3zM59 63h1v1h-1zM63 63h2v1h-2zM4 64h7v1h-7zM12 64h1v1h-1zM17 64h2v1h-2zM23 64h2v1h-2zM26 64h1v1h-1zM31 64h1v1h-1zM33 64h1v1h-1zM38 64h2v1h-2zM41 64h1v1h-1zM47 64h1v1h-1zM49 64h1v1h-1zM51 64h2v1h-2zM54 64h1v1h-1zM57 64h4v1h-4zM62 64h1v1h-1zM64 64h1v1h-1z" fill="#000"/></svg>