<svg width="21" height="20" viewBox="0 0 21 20" fill="none" xmlns="http://www.w3.org/2000/svg">
<path d="M17.0476 19.9963H3.95248C3.28091 20.0268 2.6137 19.8682 2.01936 19.5369C1.42501 19.2057 0.924899 18.7135 0.57028 18.1111C0.21566 17.5086 0.0192975 16.8174 0.00134968 16.1085C-0.0165876 15.3995 0.144543 14.6984 0.468182 14.0768L7.01569 2.07107C7.37867 1.4389 7.89007 0.916196 8.50044 0.553405C9.11077 0.190614 9.79942 0 10.5 0C11.2005 0 11.8893 0.190614 12.4996 0.553405C13.1099 0.916196 13.6214 1.4389 13.9844 2.07107L20.5319 14.0768C20.8555 14.6984 21.0166 15.3995 20.9986 16.1085C20.9807 16.8174 20.7844 17.5086 20.4298 18.1111C20.0751 18.7135 19.5749 19.2057 18.9806 19.5369C18.3863 19.8682 17.7191 20.0268 17.0476 19.9963Z" fill="#FADC34"/>
<path d="M9.32178 15.4428C9.32178 15.2785 9.35262 15.1158 9.41252 14.9642C9.47241 14.8125 9.5602 14.6749 9.67084 14.5593C9.78137 14.4437 9.91263 14.3523 10.0568 14.2904C10.2012 14.2285 10.3555 14.1974 10.5113 14.1989C10.741 14.2033 10.9643 14.279 11.1535 14.4166C11.3426 14.5542 11.4891 14.7476 11.5747 14.9725C11.6602 15.1975 11.6809 15.4441 11.6344 15.6814C11.5877 15.9188 11.4758 16.1363 11.3127 16.307C11.1495 16.4776 10.9422 16.5937 10.7169 16.6408C10.4915 16.6879 10.258 16.6638 10.0456 16.5715C9.83305 16.4793 9.65115 16.323 9.52241 16.1222C9.39367 15.9215 9.32388 15.6852 9.32178 15.4428ZM9.70073 12.4108L9.55336 6.61344C9.53936 6.47409 9.55326 6.33318 9.59431 6.19989C9.63526 6.06658 9.70231 5.94385 9.79116 5.83967C9.88 5.73549 9.98864 5.65219 10.1099 5.59516C10.2313 5.53814 10.3626 5.50867 10.4955 5.50867C10.6283 5.50867 10.7597 5.53814 10.881 5.59516C11.0023 5.65219 11.1109 5.73549 11.1997 5.83967C11.2886 5.94385 11.3557 6.06658 11.3967 6.19989C11.4376 6.33318 11.4516 6.47409 11.4376 6.61344L11.3008 12.4108C11.3008 12.6346 11.2165 12.8494 11.0665 13.0076C10.9163 13.1659 10.7129 13.2549 10.5008 13.2549C10.2885 13.2549 10.0851 13.1659 9.93506 13.0076C9.78505 12.8494 9.70073 12.6346 9.70073 12.4108Z" fill="#0F0F0F"/>
</svg>
