<svg width="10" height="10" viewBox="0 0 10 10" fill="none" xmlns="http://www.w3.org/2000/svg">
<path d="M0.868248 8.20211C0.672986 8.39737 0.672986 8.71396 0.868248 8.90922C1.06351 9.10448 1.38009 9.10448 1.57536 8.90922L0.868248 8.20211ZM9.49998 0.777489C9.49998 0.501347 9.27612 0.277489 8.99998 0.277489L4.49998 0.27749C4.22383 0.27749 3.99998 0.501347 3.99998 0.77749C3.99998 1.05363 4.22383 1.27749 4.49998 1.27749L8.49998 1.27749L8.49998 5.27749C8.49998 5.55363 8.72383 5.77749 8.99998 5.77749C9.27612 5.77749 9.49998 5.55363 9.49998 5.27749L9.49998 0.777489ZM1.2218 8.55566L1.57536 8.90922L9.35353 1.13104L8.99998 0.77749L8.64642 0.423936L0.868248 8.20211L1.2218 8.55566Z" fill="white"/>
</svg>
