<svg width="22" height="20" viewBox="0 0 22 20" fill="none" xmlns="http://www.w3.org/2000/svg">
<path d="M17.3182 19.9963H4.01522C3.33298 20.0268 2.65519 19.8682 2.05141 19.5369C1.44763 19.2057 0.93958 18.7135 0.579332 18.1111C0.219084 17.5086 0.0196038 16.8174 0.0013711 16.1085C-0.0168509 15.3995 0.146837 14.6984 0.475614 14.0768L7.12705 2.07107C7.49579 1.4389 8.01531 0.916196 8.63536 0.553405C9.25538 0.190614 9.95496 0 10.6666 0C11.3783 0 12.078 0.190614 12.698 0.553405C13.318 0.916196 13.8376 1.4389 14.2063 2.07107L20.8578 14.0768C21.1865 14.6984 21.3502 15.3995 21.332 16.1085C21.3138 16.8174 21.1143 17.5086 20.7541 18.1111C20.3938 18.7135 19.8856 19.2057 19.2819 19.5369C18.6781 19.8682 18.0003 20.0268 17.3182 19.9963Z" fill="#FF2D54"/>
<path d="M9.46985 15.4428C9.46985 15.2785 9.50118 15.1158 9.56203 14.9642C9.62287 14.8125 9.71206 14.6749 9.82445 14.5593C9.93673 14.4437 10.0701 14.3523 10.2166 14.2904C10.3632 14.2285 10.52 14.1974 10.6782 14.1989C10.9116 14.2033 11.1385 14.279 11.3307 14.4166C11.5227 14.5542 11.6716 14.7476 11.7585 14.9725C11.8453 15.1975 11.8664 15.4441 11.8191 15.6814C11.7718 15.9188 11.6581 16.1363 11.4923 16.307C11.3266 16.4776 11.116 16.5937 10.8871 16.6408C10.6581 16.6879 10.4209 16.6638 10.2051 16.5715C9.98924 16.4793 9.80445 16.323 9.67367 16.1222C9.54289 15.9215 9.47199 15.6852 9.46985 15.4428ZM9.85482 12.4108L9.70511 6.61344C9.69089 6.47409 9.705 6.33318 9.74671 6.19989C9.78831 6.06658 9.85642 5.94385 9.94668 5.83967C10.0369 5.73549 10.1473 5.65219 10.2705 5.59516C10.3938 5.53814 10.5272 5.50867 10.6622 5.50867C10.7971 5.50867 10.9306 5.53814 11.0538 5.59516C11.1771 5.65219 11.2873 5.73549 11.3776 5.83967C11.4679 5.94385 11.5361 6.06658 11.5777 6.19989C11.6193 6.33318 11.6335 6.47409 11.6193 6.61344L11.4803 12.4108C11.4803 12.6346 11.3946 12.8494 11.2422 13.0076C11.0897 13.1659 10.883 13.2549 10.6675 13.2549C10.452 13.2549 10.2452 13.1659 10.0929 13.0076C9.94048 12.8494 9.85482 12.6346 9.85482 12.4108Z" fill="#0F0F0F"/>
</svg>
